<?xml version="1.0" encoding="UTF-8"?>
<svg version="1.1" xmlns="http://www.w3.org/2000/svg" width="797" height="712">
<path d="M0 0 C18.40355497 15.84081423 28.31060673 37.56012551 30.89453125 61.52734375 C31.86964788 78.92016107 30.98781655 97.41876658 26.73046875 114.3515625 C25.2498889 120.65683958 27.05895771 126.28811918 28.51953125 132.46484375 C31.16918337 144.93499455 29.79745879 156.7267615 24.89453125 168.52734375 C24.24484375 170.10515625 24.24484375 170.10515625 23.58203125 171.71484375 C18.02940924 180.96921376 11.34408669 188.98195887 0.89453125 192.52734375 C-1.43804369 192.86594334 -3.77121087 193.20054765 -6.10546875 193.52734375 C-7.73838993 196.79318611 -7.29644139 200.37725472 -7.29296875 203.96484375 C-7.29216309 204.8364917 -7.29135742 205.70813965 -7.29052734 206.60620117 C-7.19279671 217.61047863 -6.34197843 228.56285663 -5.37011719 239.52001953 C-5.20716608 241.37170939 -5.05237005 243.22416419 -4.91113281 245.07763672 C-4.39281201 254.97635023 -4.39281201 254.97635023 0.7746582 262.99169922 C9.27581038 269.14996793 19.77346141 271.89515711 29.77386475 274.56661987 C135.96277909 303.05614758 135.96277909 303.05614758 170.89453125 338.52734375 C172.06435547 339.69910156 172.06435547 339.69910156 173.2578125 340.89453125 C189.01219259 357.62764036 199.47348943 380.37714434 207.89453125 401.52734375 C208.23548828 402.38312012 208.57644531 403.23889648 208.92773438 404.12060547 C219.74957991 431.57125686 227.00179699 459.47371791 233.57421875 488.18359375 C233.88153931 489.52453346 233.88153931 489.52453346 234.19506836 490.89256287 C234.77219404 493.43527647 235.33697358 495.98027184 235.89453125 498.52734375 C236.0864505 499.39326141 236.27836975 500.25917908 236.47610474 501.15133667 C237.50033243 505.96797959 238.13788452 510.46195646 238.08984375 515.41015625 C238.08339844 516.59609375 238.07695313 517.78203125 238.0703125 519.00390625 C238.05355469 520.20789063 238.03679688 521.411875 238.01953125 522.65234375 C238.01050781 523.895 238.00148438 525.13765625 237.9921875 526.41796875 C237.96882854 529.45463379 237.93607408 532.49088228 237.89453125 535.52734375 C236.57453125 536.18734375 235.25453125 536.84734375 233.89453125 537.52734375 C233.6580102 544.26819364 234.35926933 550.6255976 235.359375 557.29296875 C239.78572763 589.63038254 244.30467789 637.25901915 223.58203125 665.46484375 C214.59779772 675.9038547 204.63486934 682.42511124 190.89453125 684.52734375 C186.82792965 684.82474453 182.78336973 684.86024219 178.70703125 684.83984375 C177.57225342 684.83637939 176.43747559 684.83291504 175.26831055 684.8293457 C160.33700799 684.6407639 145.74872771 682.34804696 131.18359375 679.17578125 C124.21305139 677.80154131 117.50787512 677.38283762 110.42623234 677.40708923 C109.49969954 677.40623499 108.57316674 677.40538074 107.61855718 677.4045006 C104.51440755 677.40285656 101.41031226 677.40835808 98.3061676 677.41381836 C96.05729531 677.41409841 93.80842294 677.41393532 91.5595507 677.41336727 C85.37854901 677.41307158 79.1975665 677.41900904 73.01656926 677.42593718 C67.03336358 677.4316548 61.05015768 677.43265025 55.06694978 677.43372086 C42.81737627 677.43605568 30.56780926 677.44290813 18.31823921 677.45217896 C1.54444461 677.46481168 -15.22934784 677.47083203 -32.00314642 677.47511232 C-39.83212781 677.47711877 -47.6611091 677.47944647 -55.49009037 677.4818573 C-56.27399033 677.48209831 -57.0578903 677.48233933 -57.86554481 677.48258764 C-76.52942354 677.48840037 -95.19330056 677.49735339 -113.85717773 677.50683594 C-115.08190206 677.50745641 -115.08190206 677.50745641 -116.33136829 677.50808941 C-130.386171 677.51521465 -144.4409736 677.52255785 -158.49577618 677.52994728 C-170.00003238 677.53599456 -181.50428862 677.54197843 -193.00854492 677.54785156 C-194.22323975 677.54847345 -194.22323975 677.54847345 -195.46247386 677.54910789 C-214.01242496 677.55858753 -232.56237585 677.56713484 -251.11232853 677.5728302 C-251.89607746 677.57307119 -252.6798264 677.57331219 -253.4873253 677.57356048 C-261.32178273 677.57594853 -269.15624019 677.57817621 -276.99069772 677.58016673 C-293.71874995 677.58445153 -310.44679442 677.59143861 -327.17484245 677.60421458 C-339.40513857 677.61351076 -351.63543209 677.61918054 -363.86573159 677.62133193 C-370.46410498 677.62260203 -377.06246899 677.62553999 -383.66083908 677.63309097 C-399.80945909 677.65068496 -415.95711668 677.62453969 -432.10546875 677.52734375 C-433.25834874 677.52120733 -434.41122873 677.51507091 -435.59904447 677.50874853 C-442.52032911 677.46988962 -449.44073309 677.40754266 -456.36147768 677.31220138 C-458.50017828 677.28525239 -460.63897056 677.26469243 -462.77779745 677.25105298 C-465.71180235 677.2305539 -468.64440924 677.18520191 -471.57800388 677.13328552 C-472.43015434 677.13236196 -473.2823048 677.1314384 -474.160278 677.13048685 C-479.84130947 676.99299464 -484.40697318 675.83944354 -489.10546875 672.52734375 C-494.43033845 666.59182614 -495.76596198 659.16721008 -497.44140625 651.57421875 C-497.88949344 649.63288279 -498.33759138 647.69154927 -498.78619194 645.75033188 C-499.254262 643.71353261 -499.71533608 641.67525765 -500.17468262 639.63647461 C-501.08019292 635.62440302 -502.01323011 631.61914193 -502.95410156 627.61523438 C-504.72543588 620.0691944 -506.47729972 612.51874953 -508.22393036 604.96695709 C-508.74229092 602.72624008 -509.26113015 600.48563436 -509.78009033 598.24505615 C-515.71035074 572.63913041 -521.58111443 547.01991309 -527.40626526 521.38986206 C-529.6509745 511.51654155 -531.90472907 501.64530022 -534.16013336 491.77441788 C-535.3878879 486.40025215 -536.61469458 481.02586996 -537.84149933 475.65148735 C-538.84537695 471.2539957 -539.84976659 466.85662242 -540.85540771 462.45953369 C-548.15568405 430.53518727 -548.15568405 430.53518727 -550.6015625 419.1640625 C-550.83317833 418.10924179 -550.83317833 418.10924179 -551.06947327 417.03311157 C-552.64494274 409.55429194 -553.75904164 402.01821985 -550.41796875 394.96484375 C-546.08916515 390.40205076 -541.99874733 386.9162255 -535.55445546 386.27253473 C-534.64198751 386.27025641 -533.72951955 386.26797808 -532.78940105 386.26563072 C-531.73094374 386.25816523 -530.67248643 386.25069974 -529.58195466 386.24300802 C-527.84703781 386.24591012 -527.84703781 386.24591012 -526.07707214 386.24887085 C-524.84365076 386.24307845 -523.61022937 386.23728605 -522.33943158 386.23131812 C-518.91879443 386.21725155 -515.4983527 386.21208757 -512.07770073 386.21066952 C-508.38788714 386.20697511 -504.69811858 386.19181942 -501.0083313 386.17805481 C-494.61650756 386.15577946 -488.22469984 386.14076783 -481.83284569 386.13068771 C-472.59130011 386.11610306 -463.34981034 386.09056684 -454.1082975 386.06235643 C-439.1146122 386.01688455 -424.12091886 385.98027138 -409.12719727 385.94921875 C-394.56207875 385.91903483 -379.99697989 385.88468528 -365.43188477 385.84472656 C-364.08522669 385.84103424 -364.08522669 385.84103424 -362.7113634 385.83726732 C-358.20751093 385.82489275 -353.7036587 385.81243621 -349.19980657 385.79993892 C-311.83505441 385.6963652 -274.47027883 385.60716389 -237.10546875 385.52734375 C-236.90975281 384.71121613 -236.71403687 383.8950885 -236.51239014 383.05422974 C-236.25016663 381.97946381 -235.98794312 380.90469788 -235.71777344 379.79736328 C-235.4601825 378.73373566 -235.20259155 377.67010803 -234.93719482 376.57424927 C-233.84667359 372.57928595 -232.28430162 369.05161444 -230.35546875 365.40234375 C-230.00331299 364.72204102 -229.65115723 364.04173828 -229.28833008 363.34082031 C-221.551774 348.68574671 -211.00034642 336.56761491 -197.10546875 327.52734375 C-196.17863281 326.90730469 -195.25179688 326.28726562 -194.296875 325.6484375 C-176.89319204 314.44580673 -157.48655809 305.83604965 -138.28294373 298.19985962 C-135.4338719 297.06448204 -132.59135866 295.91310178 -129.74874878 294.76165771 C-128.3275776 294.19186178 -126.90302252 293.63042973 -125.47512817 293.07769775 C-123.45799819 292.29676473 -121.4534563 291.48912813 -119.44921875 290.67578125 C-118.27552734 290.21349121 -117.10183594 289.75120117 -115.89257812 289.27490234 C-112.83235912 287.72091211 -112.83235912 287.72091211 -111.70898438 284.33056641 C-111.50982422 283.40550293 -111.31066406 282.48043945 -111.10546875 281.52734375 C-112.12125 281.44097656 -113.13703125 281.35460937 -114.18359375 281.265625 C-136.0136648 279.14839839 -151.64168385 268.3263441 -165.42578125 251.734375 C-187.02985556 223.05602538 -190.68873742 189.99012326 -195.38085938 155.50323486 C-195.9575805 151.27925255 -196.55808501 147.05914986 -197.16796875 142.83984375 C-197.305979 141.8024707 -197.44398926 140.76509766 -197.58618164 139.69628906 C-198.36686551 134.36864314 -199.50548422 130.09281203 -202.10424805 125.37231445 C-203.73610392 122.3652589 -204.87555316 119.19236035 -205.98046875 115.96484375 C-206.2345752 115.23031982 -206.48868164 114.4957959 -206.75048828 113.73901367 C-208.45454738 108.46252014 -209.60174392 103.16604644 -210.54296875 97.70703125 C-210.6636673 97.02087234 -210.78436584 96.33471344 -210.90872192 95.62776184 C-211.51081351 92.17498015 -212.07163217 88.72238637 -212.57373047 85.25366211 C-213.81995208 77.77492588 -214.93156002 73.38577977 -221.19775391 68.86450195 C-221.8272998 68.42323975 -222.4568457 67.98197754 -223.10546875 67.52734375 C-231.8221044 57.41541929 -235.50578199 46.37061721 -235.3828125 33.19921875 C-234.74943465 24.81365288 -231.10078213 15.59319023 -225.10546875 9.52734375 C-220.85679349 7.93677729 -218.25807271 9.07056258 -214.10546875 10.52734375 C-196.56887043 12.83963734 -180.96834741 5.14840448 -165.11157227 -1.34301758 C-115.85002173 -21.19739214 -45.87549487 -36.52728082 0 0 Z " fill="#084733" transform="translate(559.10546875,24.47265625)"/>
<path d="M0 0 C1.27047009 -0.00523668 2.54094018 -0.01047336 3.84990937 -0.01586872 C7.36036995 -0.0299891 10.87074175 -0.03171316 14.38122666 -0.03127182 C18.17340479 -0.03292523 21.96554688 -0.04600121 25.75770569 -0.0574646 C34.04062946 -0.08026962 42.32352754 -0.08822979 50.60647845 -0.09329104 C55.78063573 -0.09655214 60.95478559 -0.10307695 66.12893867 -0.11029243 C80.46282301 -0.1298495 94.79670048 -0.14625994 109.13059902 -0.14916897 C110.0469811 -0.14935654 110.96336317 -0.14954411 111.9075144 -0.14973736 C113.76510433 -0.1501036 115.62269427 -0.1504673 117.48028421 -0.15082847 C118.40235209 -0.15101128 119.32441998 -0.1511941 120.27442932 -0.15138245 C121.6592239 -0.15165327 121.6592239 -0.15165327 123.07199413 -0.15192956 C138.03871198 -0.15547299 153.00528611 -0.18250984 167.9719541 -0.21988034 C183.34833727 -0.25796598 198.7246491 -0.27732645 214.10108048 -0.27762848 C222.73038656 -0.27821285 231.35952101 -0.28669252 239.98878288 -0.31562614 C247.33431059 -0.34014304 254.67960399 -0.34742062 262.02516156 -0.33237862 C265.77122155 -0.3252119 269.51681887 -0.32605645 273.26282692 -0.34878922 C277.32773861 -0.3732207 281.39159863 -0.35873779 285.45654297 -0.34057617 C286.63495536 -0.35377614 287.81336775 -0.36697611 289.0274896 -0.38057607 C297.52522355 -0.29385146 303.51365322 1.59546853 309.66676331 7.58665466 C314.13658226 14.97904756 315.46822187 23.27110161 317.10862732 31.63249207 C317.85825447 35.44722966 318.63205326 39.25706287 319.40504456 43.06712341 C319.56227493 43.84380371 319.71950531 44.62048401 319.88150024 45.42070007 C321.39407445 52.85423273 323.04085975 60.2534647 324.72926331 67.64915466 C325.01511292 68.90300964 325.30096252 70.15686462 325.59547424 71.44871521 C326.03666773 73.38254803 326.477865 75.31638006 326.91972351 77.25006104 C328.73731594 85.21040043 330.5184065 93.178858 332.29176331 101.14915466 C332.4613858 101.91148407 332.6310083 102.67381348 332.80577087 103.45924377 C335.25261375 114.46952831 337.6292142 125.49258577 339.95048523 136.53010559 C343.21760393 152.05649819 346.62128193 167.55278749 350.01548767 183.05180359 C353.69298356 199.85162206 357.31260844 216.66166597 360.79347229 233.50340271 C362.27934505 240.66267249 363.85724068 247.76921071 365.75636292 254.83201599 C366.29176331 257.27415466 366.29176331 257.27415466 366.29176331 261.27415466 C378.50176331 260.94415466 390.71176331 260.61415466 403.29176331 260.27415466 C401.64176331 259.28415466 399.99176331 258.29415466 398.29176331 257.27415466 C397.94113831 257.78977966 397.59051331 258.30540466 397.22926331 258.83665466 C395.29176331 260.27415466 395.29176331 260.27415466 392.04176331 260.52415466 C386.6788873 258.73652933 384.07709405 255.09980367 381.29176331 250.27415466 C381.29176331 249.28415466 381.29176331 248.29415466 381.29176331 247.27415466 C380.50801331 247.31540466 379.72426331 247.35665466 378.91676331 247.39915466 C376.29176331 247.27415466 376.29176331 247.27415466 374.29176331 245.27415466 C373.61766408 238.71765268 375.02731095 234.68019627 378.22926331 229.02415466 C378.63676819 228.28326599 379.04427307 227.54237732 379.46412659 226.77903748 C383.18818254 220.16199616 387.47880085 214.14692508 392.29176331 208.27415466 C393.11160706 207.2519281 393.93145081 206.22970154 394.77613831 205.17649841 C424.54834322 168.61629782 424.54834322 168.61629782 444.67066956 165.80149841 C457.37589276 165.25758655 467.75231221 171.3851774 478.91676331 176.83665466 C488.83537932 181.63995298 498.80362621 186.32064846 508.82154846 190.91307068 C509.81203186 191.36738464 510.80251526 191.82169861 511.82301331 192.28977966 C512.80374313 192.72553818 513.78447296 193.16129669 514.79492188 193.61026001 C518.29176331 195.27415466 518.29176331 195.27415466 521.68408203 197.28044128 C534.81759776 204.81672305 547.74395456 204.39541185 562.54566956 204.27415466 C565.14455373 204.28168704 567.74342985 204.29273316 570.34228516 204.30711365 C576.43715701 204.33248134 582.53101771 204.32293794 588.62585062 204.29568958 C595.57664468 204.26662168 602.527108 204.28335266 609.47790635 204.30350113 C623.74936779 204.34386648 638.02036167 204.32811408 652.29176331 204.27415466 C652.04941956 203.34554626 651.80707581 202.41693787 651.55738831 201.46018982 C650.66041143 198.02055646 649.76661869 194.58010244 648.87379456 191.13938904 C648.48664513 189.64925351 648.0986281 188.15934312 647.70973206 186.66966248 C647.15146756 184.53059801 646.59631005 182.39074802 646.04176331 180.25071716 C645.86677307 179.58295258 645.69178284 178.91518799 645.51148987 178.22718811 C644.29176331 173.50189808 644.29176331 173.50189808 644.29176331 171.27415466 C645.14665344 171.21469666 645.14665344 171.21469666 646.01881409 171.15403748 C680.58456218 168.67870596 713.74043887 163.11880342 746.89918518 152.99876404 C750.0200846 152.05357736 753.15314568 151.15851654 756.29176331 150.27415466 C764.92135412 187.20880334 770.56730089 241.9514061 749.66676331 275.91477966 C741.00298264 287.70714779 729.79546495 295.05512971 715.29176331 297.27415466 C711.22516171 297.57155544 707.18060179 297.6070531 703.10426331 297.58665466 C701.96948547 297.58319031 700.83470764 297.57972595 699.6655426 297.57615662 C684.73424004 297.38757482 670.14595976 295.09485787 655.58082581 291.92259216 C648.61028344 290.54835222 641.90510717 290.12964853 634.82346439 290.15390015 C633.89693159 290.1530459 632.97039879 290.15219165 632.01578924 290.15131152 C628.91163961 290.14966747 625.80754432 290.155169 622.70339966 290.16062927 C620.45452737 290.16090933 618.20565499 290.16074623 615.95678276 290.16017818 C609.77578106 290.15988249 603.59479856 290.16581995 597.41380131 290.17274809 C591.43059563 290.17846571 585.44738973 290.17946116 579.46418183 290.18053177 C567.21460832 290.18286659 554.96504132 290.18971905 542.71547127 290.19898987 C525.94167666 290.21162259 509.16788422 290.21764294 492.39408564 290.22192323 C484.56510425 290.22392969 476.73612296 290.22625739 468.90714169 290.22866821 C468.12324172 290.22890923 467.33934176 290.22915024 466.53168725 290.22939856 C447.86780852 290.23521128 429.2039315 290.24416431 410.54005432 290.25364685 C409.31533 290.25426732 409.31533 290.25426732 408.06586377 290.25490032 C394.01106105 290.26202556 379.95625846 290.26936877 365.90145588 290.27675819 C354.39719967 290.28280547 342.89294343 290.28878934 331.38868713 290.29466248 C330.57889058 290.29507707 329.76909403 290.29549165 328.93475819 290.29591881 C310.3848071 290.30539844 291.8348562 290.31394575 273.28490353 290.31964111 C272.50115459 290.31988211 271.71740566 290.3201231 270.90990675 290.3203714 C263.07544933 290.32275945 255.24099187 290.32498712 247.40653433 290.32697764 C230.67848211 290.33126244 213.95043764 290.33824953 197.22238961 290.35102549 C184.99209349 290.36032167 172.76179997 290.36599145 160.53150047 290.36814284 C153.93312707 290.36941294 147.33476306 290.3723509 140.73639297 290.37990189 C124.58777297 290.39749588 108.44011538 290.37135061 92.29176331 290.27415466 C91.13888332 290.26801824 89.98600333 290.26188182 88.79818758 290.25555944 C81.87690295 290.21670053 74.95649897 290.15435357 68.03575438 290.05901229 C65.89705377 290.0320633 63.75826149 290.01150334 61.6194346 289.99786389 C58.6854297 289.97736481 55.75282282 289.93201282 52.81922817 289.88009644 C51.96707771 289.87917287 51.11492726 289.87824931 50.23695406 289.87729776 C44.55592258 289.73980556 39.99025887 288.58625446 35.29176331 285.27415466 C29.96689361 279.33863705 28.63127007 271.914021 26.95582581 264.32102966 C26.50773861 262.37969371 26.05964068 260.43836018 25.61104012 258.49714279 C25.14297006 256.46034353 24.68189597 254.42206856 24.22254944 252.38328552 C23.31703913 248.37121393 22.38400195 244.36595284 21.44313049 240.36204529 C19.67179618 232.81600532 17.91993234 225.26556044 16.1733017 217.71376801 C15.65494114 215.47305099 15.1361019 213.23244527 14.61714172 210.99186707 C8.68688131 185.38594132 2.81611762 159.766724 -3.0090332 134.13667297 C-5.25374245 124.26335246 -7.50749702 114.39211114 -9.76290131 104.52122879 C-10.99065585 99.14706306 -12.21746252 93.77268087 -13.44426727 88.39829826 C-14.44814489 84.00080661 -15.45253453 79.60343333 -16.45817566 75.2063446 C-23.75845199 43.28199818 -23.75845199 43.28199818 -26.20433044 31.91087341 C-26.358741 31.20765961 -26.51315155 30.5044458 -26.67224121 29.77992249 C-28.14304526 22.79795402 -29.92930007 14.04990581 -25.89573669 7.64915466 C-25.17386169 6.86540466 -24.45198669 6.08165466 -23.70823669 5.27415466 C-23.29573669 4.69665466 -22.88323669 4.11915466 -22.45823669 3.52415466 C-16.23424994 -0.92155016 -7.24648159 -0.01482316 0 0 Z " fill="#AAA8A6" transform="translate(34.70823669433594,411.72584533691406)"/>
<path d="M0 0 C18.40355497 15.84081423 28.31060673 37.56012551 30.89453125 61.52734375 C31.86964788 78.92016107 30.98781655 97.41876658 26.73046875 114.3515625 C25.2498889 120.65683958 27.05895771 126.28811918 28.51953125 132.46484375 C31.16918337 144.93499455 29.79745879 156.7267615 24.89453125 168.52734375 C24.46140625 169.57921875 24.02828125 170.63109375 23.58203125 171.71484375 C18.02940924 180.96921376 11.34408669 188.98195887 0.89453125 192.52734375 C-1.43804369 192.86594334 -3.77121087 193.20054765 -6.10546875 193.52734375 C-7.73838993 196.79318611 -7.29644139 200.37725472 -7.29296875 203.96484375 C-7.29216309 204.8364917 -7.29135742 205.70813965 -7.29052734 206.60620117 C-7.19279671 217.61047863 -6.34197843 228.56285663 -5.37011719 239.52001953 C-5.20716608 241.37170939 -5.05237005 243.22416419 -4.91113281 245.07763672 C-4.25605252 255.1120559 -4.25605252 255.1120559 1.1015625 263.23828125 C3.6732838 265.0872312 6.34173459 266.47559506 9.2578125 267.703125 C10.89453125 268.52734375 10.89453125 268.52734375 11.89453125 270.52734375 C13.09031245 285.35503064 5.35451433 298.99227902 -3.92578125 310.05859375 C-19.00708841 327.1399309 -38.25652318 339.12236065 -61.54003906 340.69140625 C-76.16676377 341.35751895 -88.13401341 339.70014944 -100.73046875 331.90234375 C-106.98689496 325.64591754 -110.72357352 317.73347435 -111.37109375 308.90625 C-111.33178991 299.30628723 -110.51945711 290.02126561 -109.10546875 280.52734375 C-109.89308594 280.57375 -110.68070312 280.62015625 -111.4921875 280.66796875 C-127.14143338 281.18652364 -140.69910938 275.81540601 -152.23046875 265.27734375 C-154.22068106 263.39154538 -156.16923395 261.46836444 -158.10546875 259.52734375 C-159.2965625 258.35365234 -159.2965625 258.35365234 -160.51171875 257.15625 C-180.45252775 236.33776455 -188.06430436 208.86997734 -191.81817627 181.05319214 C-192.17782502 178.39191062 -192.55262222 175.7331208 -192.93115234 173.07446289 C-193.77136351 167.15884362 -194.59360488 161.24079744 -195.40948486 155.32177734 C-196.00096061 151.03379886 -196.61133359 146.74890543 -197.23046875 142.46484375 C-197.36461182 141.45091553 -197.49875488 140.4369873 -197.63696289 139.39233398 C-198.39858285 134.16973293 -199.56268995 130.01523637 -202.10205078 125.38549805 C-203.72965133 122.37146695 -204.87414339 119.19647837 -205.98046875 115.96484375 C-206.2345752 115.23031982 -206.48868164 114.4957959 -206.75048828 113.73901367 C-208.45454738 108.46252014 -209.60174392 103.16604644 -210.54296875 97.70703125 C-210.6636673 97.02087234 -210.78436584 96.33471344 -210.90872192 95.62776184 C-211.51081351 92.17498015 -212.07163217 88.72238637 -212.57373047 85.25366211 C-213.81995208 77.77492588 -214.93156002 73.38577977 -221.19775391 68.86450195 C-221.8272998 68.42323975 -222.4568457 67.98197754 -223.10546875 67.52734375 C-231.8221044 57.41541929 -235.50578199 46.37061721 -235.3828125 33.19921875 C-234.74943465 24.81365288 -231.10078213 15.59319023 -225.10546875 9.52734375 C-220.85679349 7.93677729 -218.25807271 9.07056258 -214.10546875 10.52734375 C-196.56887043 12.83963734 -180.96834741 5.14840448 -165.11157227 -1.34301758 C-115.85002173 -21.19739214 -45.87549487 -36.52728082 0 0 Z " fill="#EEB28E" transform="translate(559.10546875,24.47265625)"/>
<path d="M0 0 C8.62959081 36.93464867 14.27553758 91.67725143 -6.625 125.640625 C-15.28878066 137.43299312 -26.49629836 144.78097505 -41 147 C-45.06660435 147.29740098 -49.11116288 147.33260299 -53.1875 147.3125 C-54.31792725 147.30976074 -55.44835449 147.30702148 -56.61303711 147.30419922 C-70.71194432 147.13251402 -87.19066581 146.35575974 -100.45556641 141.01049805 C-102.9387756 140.0243147 -105.29654384 139.38487885 -107.90234375 138.80859375 C-108.85898926 138.59114502 -109.81563477 138.37369629 -110.80126953 138.1496582 C-112.35370361 137.79713989 -112.35370361 137.79713989 -113.9375 137.4375 C-142.71282612 130.68013864 -170.76036424 121.23689174 -198.23046875 110.375 C-199.78155076 109.76588745 -201.33265735 109.15683752 -202.88378906 108.54785156 C-205.85972257 107.37845795 -208.82419151 106.18469013 -211.78417969 104.97558594 C-213.14618214 104.43608533 -214.50847285 103.8973117 -215.87109375 103.359375 C-217.05630615 102.87952148 -218.24151855 102.39966797 -219.46264648 101.90527344 C-224.69131074 100.56716266 -228.86146467 101.28715489 -234 103 C-256.04628516 104.47749646 -273.48806065 101.85841463 -293.51708984 92.99829102 C-300.02151328 90.00978747 -300.02151328 90.00978747 -307 90 C-310.56535987 91.46312315 -313.92557204 93.22881289 -317.3125 95.0625 C-318.21162109 95.52849609 -319.11074219 95.99449219 -320.03710938 96.47460938 C-325.4800321 99.36726896 -330.33271666 102.59159493 -335.11401367 106.48217773 C-339.09761601 109.68813964 -341.30471454 110.29509627 -346.375 110.3125 C-347.49648438 110.32925781 -348.61796875 110.34601563 -349.7734375 110.36328125 C-353.27161859 109.96941825 -355.15650719 109.01813441 -358 107 C-358.5259375 107.7734375 -358.5259375 107.7734375 -359.0625 108.5625 C-361 110 -361 110 -364.25 110.25 C-369.612876 108.46237467 -372.21466926 104.825649 -375 100 C-375 99.01 -375 98.02 -375 97 C-375.78375 97.04125 -376.5675 97.0825 -377.375 97.125 C-380 97 -380 97 -382 95 C-382.67409923 88.44349802 -381.26445235 84.4060416 -378.0625 78.75 C-377.45124268 77.63866699 -377.45124268 77.63866699 -376.82763672 76.50488281 C-373.10358077 69.8878415 -368.81296246 63.87277042 -364 58 C-363.18015625 56.97777344 -362.3603125 55.95554687 -361.515625 54.90234375 C-331.74342009 18.34214316 -331.74342009 18.34214316 -311.62109375 15.52734375 C-298.91587055 14.98343189 -288.53945109 21.11102274 -277.375 26.5625 C-267.45638398 31.36579832 -257.4881371 36.0464938 -247.47021484 40.63891602 C-246.47973145 41.09322998 -245.48924805 41.54754395 -244.46875 42.015625 C-243.48802017 42.45138351 -242.50729034 42.88714203 -241.49684143 43.33610535 C-238 45 -238 45 -234.60768127 47.00628662 C-221.47416554 54.54256839 -208.54780875 54.12125718 -193.74609375 54 C-191.14720958 54.00753238 -188.54833345 54.0185785 -185.94947815 54.03295898 C-179.8546063 54.05832668 -173.7607456 54.04878327 -167.66591269 54.02153492 C-160.71511863 53.99246701 -153.7646553 54.009198 -146.81385696 54.02934647 C-132.54239552 54.06971181 -118.27140164 54.05395942 -104 54 C-104.24234375 53.0713916 -104.4846875 52.1427832 -104.734375 51.18603516 C-105.63135188 47.7464018 -106.52514462 44.30594778 -107.41796875 40.86523438 C-107.80511817 39.37509885 -108.19313521 37.88518846 -108.58203125 36.39550781 C-109.14029574 34.25644335 -109.69545326 32.11659336 -110.25 29.9765625 C-110.51248535 28.97491562 -110.51248535 28.97491562 -110.78027344 27.95303345 C-112 23.22774341 -112 23.22774341 -112 21 C-111.43007324 20.96036133 -110.86014648 20.92072266 -110.27294922 20.87988281 C-74.98501995 18.35283427 -37.38448033 14.43783182 -4.32568359 0.90527344 C-2 0 -2 0 0 0 Z " fill="#EDB18D" transform="translate(791,562)"/>
<path d="M0 0 C18.40355497 15.84081423 28.31060673 37.56012551 30.89453125 61.52734375 C31.91575898 79.74262884 30.71828191 98.86142976 26.28710938 116.59033203 C25.67550029 119.60805992 25.76395569 122.45881802 25.89453125 125.52734375 C25.39953125 124.80546875 24.90453125 124.08359375 24.39453125 123.33984375 C19.89407125 118.27682625 14.58094649 115.06469587 7.81640625 114.2890625 C1.98066225 114.08963959 -2.36931032 115.00041726 -7.10546875 118.52734375 C-15.23844251 126.50006186 -19.67568484 139.25024509 -24.10546875 149.52734375 C-25.42546875 149.52734375 -26.74546875 149.52734375 -28.10546875 149.52734375 C-28.22962158 148.95105225 -28.35377441 148.37476074 -28.48168945 147.78100586 C-32.28768984 130.63117828 -38.51781934 115.62856929 -46.90234375 100.2265625 C-51.88098196 90.97860818 -58.10546875 77.19517476 -58.10546875 66.52734375 C-58.94464844 66.89085938 -59.78382813 67.254375 -60.6484375 67.62890625 C-92.52163726 80.95210872 -127.00268184 86.69307149 -161.41796875 86.90234375 C-162.1017157 86.91028961 -162.78546265 86.91823547 -163.4899292 86.92642212 C-175.72387371 87.03621724 -186.9181245 85.57104275 -198.10546875 80.52734375 C-197.96254395 81.70167969 -197.81961914 82.87601562 -197.67236328 84.0859375 C-196.7486856 92.00975393 -195.94445058 99.85612931 -195.97265625 107.83984375 C-195.97383957 108.52970367 -195.97502289 109.2195636 -195.97624207 109.93032837 C-195.9775563 110.6373288 -195.97887054 111.34432922 -195.98022461 112.07275391 C-196.02607704 137.97324193 -192.14788855 163.40892611 -188.29957581 188.96157837 C-188.14262741 190.01791473 -187.98567902 191.0742511 -187.82397461 192.16259766 C-187.68487167 193.08199127 -187.54576874 194.00138489 -187.40245056 194.94863892 C-187.10858337 197.5002994 -187.05223805 199.96138178 -187.10546875 202.52734375 C-189.49687708 198.67785304 -189.8728356 194.48135792 -190.47265625 190.08203125 C-190.65190643 188.82985558 -190.65190643 188.82985558 -190.83477783 187.55238342 C-191.0901208 185.76360686 -191.34238394 183.97438846 -191.59185791 182.18478394 C-191.98204743 179.39104049 -192.38190448 176.5988413 -192.78466797 173.80688477 C-193.77478051 166.93347363 -194.75659457 160.05892551 -195.70898438 153.18017578 C-196.20523223 149.6067401 -196.71639037 146.03574809 -197.23046875 142.46484375 C-197.36437012 141.45212402 -197.49827148 140.4394043 -197.63623047 139.39599609 C-198.39840631 134.17208416 -199.56200291 130.01648897 -202.10205078 125.38549805 C-203.72965133 122.37146695 -204.87414339 119.19647837 -205.98046875 115.96484375 C-206.2345752 115.23031982 -206.48868164 114.4957959 -206.75048828 113.73901367 C-208.45454738 108.46252014 -209.60174392 103.16604644 -210.54296875 97.70703125 C-210.6636673 97.02087234 -210.78436584 96.33471344 -210.90872192 95.62776184 C-211.51081351 92.17498015 -212.07163217 88.72238637 -212.57373047 85.25366211 C-213.81995208 77.77492588 -214.93156002 73.38577977 -221.19775391 68.86450195 C-221.8272998 68.42323975 -222.4568457 67.98197754 -223.10546875 67.52734375 C-231.8221044 57.41541929 -235.50578199 46.37061721 -235.3828125 33.19921875 C-234.74943465 24.81365288 -231.10078213 15.59319023 -225.10546875 9.52734375 C-220.85679349 7.93677729 -218.25807271 9.07056258 -214.10546875 10.52734375 C-196.56887043 12.83963734 -180.96834741 5.14840448 -165.11157227 -1.34301758 C-115.85002173 -21.19739214 -45.87549487 -36.52728082 0 0 Z " fill="#3B2B1D" transform="translate(559.10546875,24.47265625)"/>
<path d="M0 0 C1.83934829 0.80247555 3.67648511 1.61003351 5.51171875 2.421875 C22.80936613 9.68098772 46.58797713 17.0408026 65.08129883 10.08837891 C72.06632842 8.03514885 78.43583888 10.74838115 84.90234375 13.34765625 C86.60388074 14.01182581 88.30546138 14.67588355 90.00708008 15.33984375 C90.89376373 15.68966309 91.78044739 16.03948242 92.69400024 16.39990234 C126.70999414 29.78882782 161.33696419 41.79005369 197.19921875 49.171875 C197.19921875 49.501875 197.19921875 49.831875 197.19921875 50.171875 C196.41501409 50.10108264 195.63080943 50.03029028 194.82284099 49.9573527 C186.83134632 49.28273784 178.92235797 49.03156522 170.90507507 49.05162048 C168.99568727 49.05033885 168.99568727 49.05033885 167.04772598 49.04903132 C163.55399953 49.04681824 160.06030432 49.0507634 156.56658185 49.05580938 C152.78422564 49.06016001 149.00187095 49.0586642 145.21951294 49.0579071 C138.67940039 49.05738478 132.13929788 49.06050107 125.59918785 49.06614494 C116.14348649 49.07429952 106.68778994 49.07687921 97.23208544 49.07813293 C81.88787518 49.08031725 66.54367026 49.08696049 51.19946289 49.09643555 C36.30102566 49.10562573 21.40258989 49.1126987 6.50415039 49.11694336 C5.12480105 49.11733744 5.12480105 49.11733744 3.71758606 49.11773949 C-0.8959737 49.1190446 -5.50953347 49.12030829 -10.12309325 49.12155139 C-48.34899299 49.13190469 -86.57488676 49.14950609 -124.80078125 49.171875 C-124.80078125 48.841875 -124.80078125 48.511875 -124.80078125 48.171875 C-124.06964111 48.13223633 -123.33850098 48.09259766 -122.58520508 48.05175781 C-119.2598274 47.86075635 -115.93687832 47.64161696 -112.61328125 47.421875 C-111.46279297 47.36 -110.31230469 47.298125 -109.12695312 47.234375 C-108.01513672 47.15703125 -106.90332031 47.0796875 -105.7578125 47 C-104.2260437 46.9057373 -104.2260437 46.9057373 -102.66333008 46.80957031 C-99.11315434 46.01869108 -97.38964612 44.69817167 -94.80078125 42.171875 C-92.12587344 37.41538493 -92.12587344 37.41538493 -91.80078125 28.171875 C-39.00078125 28.171875 13.79921875 28.171875 68.19921875 28.171875 C67.86921875 26.521875 67.53921875 24.871875 67.19921875 23.171875 C61.24837585 21.11568749 55.84888253 20.86690633 49.58227539 20.85302734 C48.01529404 20.83795891 48.01529404 20.83795891 46.41665649 20.82258606 C42.98090133 20.79181857 39.54522388 20.77473663 36.109375 20.7578125 C33.72040644 20.7390957 31.33144445 20.71952191 28.94248962 20.6991272 C22.66750977 20.64785424 16.3925085 20.60820249 10.11743164 20.57098389 C3.70909344 20.53091402 -2.69915602 20.47983525 -9.10742188 20.4296875 C-21.6718115 20.33298541 -34.23625208 20.24818816 -46.80078125 20.171875 C-45.81078125 19.511875 -44.82078125 18.851875 -43.80078125 18.171875 C-42.72183594 17.29208984 -42.72183594 17.29208984 -41.62109375 16.39453125 C-35.09442756 11.16373937 -28.3000619 7.03147076 -20.92578125 3.109375 C-20.02230957 2.62025635 -19.11883789 2.1311377 -18.18798828 1.62719727 C-11.30360377 -1.94795246 -7.3376758 -2.95482991 0 0 Z " fill="#0A3325" transform="translate(494.80078125,652.828125)"/>
<path d="M0 0 C1.26876124 -0.00523668 2.53752248 -0.01047336 3.84473103 -0.01586872 C7.35971021 -0.03002524 10.87460085 -0.03171246 14.38960445 -0.03127182 C18.18318114 -0.03292207 21.97672159 -0.04599239 25.77027893 -0.0574646 C34.06158531 -0.08029634 42.35286606 -0.08823304 50.64419961 -0.09329104 C55.82270135 -0.09654978 61.00119568 -0.10307327 66.17969322 -0.11029243 C80.5220748 -0.12985492 94.8644495 -0.14626154 109.20684528 -0.14916897 C110.1242976 -0.14935654 111.04174991 -0.14954411 111.98700381 -0.14973736 C113.84683176 -0.15010361 115.7066597 -0.15046731 117.56648765 -0.15082847 C118.48968634 -0.15101128 119.41288504 -0.1511941 120.36405945 -0.15138245 C121.75055053 -0.15165327 121.75055053 -0.15165327 123.16505154 -0.15192956 C138.14482958 -0.15547176 153.12446392 -0.18249854 168.10419212 -0.21988034 C183.48955206 -0.25796672 198.8748407 -0.27732646 214.26024884 -0.27762848 C222.89629158 -0.27821293 231.53216282 -0.2866969 240.16816139 -0.31562614 C247.52105707 -0.34014432 254.87371868 -0.34741994 262.2266442 -0.33237862 C265.97674063 -0.32521177 269.72637489 -0.32605687 273.47641945 -0.34878922 C277.54581685 -0.37322074 281.61416374 -0.35873768 285.68359375 -0.34057617 C286.86337038 -0.35377614 288.04314701 -0.36697611 289.25867444 -0.38057607 C297.76083771 -0.29390377 303.75079515 1.59219004 309.90727234 7.58665466 C314.3770913 14.97904756 315.7087309 23.27110161 317.34913635 31.63249207 C318.0987635 35.44722966 318.87256229 39.25706287 319.64555359 43.06712341 C319.80278397 43.84380371 319.96001434 44.62048401 320.12200928 45.42070007 C321.63458348 52.85423273 323.28136879 60.2534647 324.96977234 67.64915466 C325.25562195 68.90300964 325.54147156 70.15686462 325.83598328 71.44871521 C326.27717676 73.38254803 326.71837404 75.31638006 327.16023254 77.25006104 C328.97782497 85.21040043 330.75891553 93.178858 332.53227234 101.14915466 C332.70189484 101.91148407 332.87151733 102.67381348 333.04627991 103.45924377 C335.49312278 114.46952831 337.86972323 125.49258577 340.19099426 136.53010559 C343.45811296 152.05649819 346.86179096 167.55278749 350.2559967 183.05180359 C353.93349259 199.85162206 357.55311748 216.66166597 361.03398132 233.50340271 C362.51985408 240.66267249 364.09774971 247.76921071 365.99687195 254.83201599 C366.53227234 257.27415466 366.53227234 257.27415466 366.53227234 261.27415466 C367.66278015 261.24255249 368.79328796 261.21095032 369.95805359 261.1783905 C400.78331573 260.33716302 431.57411306 260.17032399 462.40873718 260.46116638 C468.45222271 260.51747635 474.49566306 260.55326898 480.5393219 260.58479691 C485.26457605 260.6125822 489.98964685 260.65359487 494.71476746 260.6984024 C496.94739757 260.717477 499.18007356 260.73183403 501.4127655 260.74120331 C504.49588129 260.7555222 507.57826994 260.78838303 510.66117859 260.82591248 C512.01346306 260.82611641 512.01346306 260.82611641 513.39306641 260.82632446 C518.79382979 260.91601475 522.85929872 261.44316151 527.53227234 264.27415466 C527.86227234 265.92415466 528.19227234 267.57415466 528.53227234 269.27415466 C475.73227234 269.27415466 422.93227234 269.27415466 368.53227234 269.27415466 C368.53227234 272.57415466 368.53227234 275.87415466 368.53227234 279.27415466 C366.54315501 283.18134942 364.38718625 286.10576559 360.53227234 288.27415466 C359.21227234 288.27415466 357.89227234 288.27415466 356.53227234 288.27415466 C356.81439111 286.64746986 357.10829609 285.0228257 357.40727234 283.39915466 C357.65090515 282.04177185 357.65090515 282.04177185 357.89945984 280.65696716 C358.53227234 278.27415466 358.53227234 278.27415466 360.53227234 276.27415466 C360.98107448 269.48217123 359.94258169 263.57266147 358.32133484 257.00071716 C357.85770304 255.04410988 357.39449645 253.0874018 356.9316864 251.13059998 C356.69631165 250.1496637 356.46093689 249.16872742 356.21842957 248.1580658 C355.18576768 243.81779948 354.2128025 239.46480524 353.24320984 235.11009216 C352.96144897 233.85073349 352.96144897 233.85073349 352.67399597 232.56593323 C352.08380349 229.92729191 351.49525524 227.2882892 350.90727234 224.64915466 C350.6987262 223.71347656 350.49018005 222.77779846 350.27531433 221.81376648 C346.16942018 203.36421977 342.25039952 184.87689275 338.35795593 166.3813324 C335.927949 154.83957406 333.4688494 143.30832581 330.87675476 131.80174255 C328.20712099 119.91316181 325.65859475 107.99841008 323.09477234 96.08665466 C317.60473194 70.55449814 317.60473194 70.55449814 312.01664734 45.04368591 C311.03151346 40.5896905 310.0861667 36.13013513 309.17289734 31.66087341 C308.95746277 30.63776062 308.7420282 29.61464783 308.52006531 28.56053162 C308.1298334 26.70654138 307.75242979 24.84977085 307.39213562 22.98973083 C306.20441522 17.45349263 304.61119988 14.25508996 300.53227234 10.27415466 C297.3570682 8.29106916 294.9147985 8.02209695 291.19983864 8.01523495 C290.11223861 8.00838615 289.02463859 8.00153736 287.90408099 7.99448103 C286.70974015 7.99709788 285.51539932 7.99971474 284.28486633 8.00241089 C282.3811127 7.99478063 282.3811127 7.99478063 280.4388994 7.98699623 C276.91361006 7.9731175 273.38840695 7.97164017 269.86309433 7.97213948 C266.06204058 7.97050374 262.26102487 7.95738006 258.45999146 7.94560242 C251.87226632 7.92672458 245.28455974 7.91502227 238.69681168 7.90806389 C229.16547104 7.89789937 219.63418654 7.87583935 210.10287504 7.85067797 C194.63078488 7.81006574 179.15868936 7.7776112 163.68656921 7.7509613 C162.29720123 7.74856535 162.29720123 7.74856535 160.8797652 7.746121 C159.95236457 7.7445221 159.02496395 7.7429232 158.06946027 7.74127585 C144.92587484 7.71859599 131.78229499 7.6939629 118.63871765 7.66697693 C117.71420534 7.66508078 116.78969303 7.66318464 115.83716519 7.66123103 C100.42589237 7.62946004 85.01463023 7.59370851 69.60337102 7.55593544 C60.09547601 7.53289041 50.58758828 7.51393812 41.07967506 7.50026871 C34.56524975 7.49074385 28.05083669 7.47790597 21.53642274 7.46245985 C17.77675508 7.45369073 14.01710257 7.44659112 10.25742531 7.44381905 C6.18280907 7.44079708 2.10824731 7.43020978 -1.96635437 7.41891479 C-3.15623376 7.41930093 -4.34611315 7.41968706 -5.5720495 7.42008489 C-7.21127278 7.41372332 -7.21127278 7.41372332 -8.88361168 7.40723324 C-9.82390925 7.40565934 -10.76420682 7.40408544 -11.73299825 7.40246385 C-14.70668543 7.26294314 -17.54289886 6.81662593 -20.46772766 6.27415466 C-19.84272766 4.39915466 -19.84272766 4.39915466 -18.46772766 2.27415466 C-12.63611841 -0.54640476 -6.32539524 -0.01287549 0 0 Z " fill="#C1BFBD" transform="translate(34.46772766113281,411.72584533691406)"/>
<path d="M0 0 C0.5536104 6.64332481 -0.19074401 11.44326354 -4 17 C-7.58715602 21.11467896 -10.67579199 21.38102392 -15.81850815 21.82467461 C-22.60698899 22.19877366 -29.40332032 22.12917385 -36.19970703 22.11352539 C-37.92529804 22.11324291 -39.65088917 22.11340245 -41.3764801 22.1139679 C-46.03484093 22.11425348 -50.69317574 22.10839552 -55.35153055 22.10139394 C-60.22954074 22.09512047 -65.10755159 22.09455345 -69.98556519 22.09336853 C-79.21109736 22.09026696 -88.43661761 22.08206945 -97.66214454 22.07201904 C-108.17003463 22.06082137 -118.67792529 22.05533826 -129.18581986 22.05032361 C-150.79055322 22.03988581 -172.39527586 22.02230919 -194 22 C-194 21.67 -194 21.34 -194 21 C-192.90328979 20.94054199 -192.90328979 20.94054199 -191.78442383 20.87988281 C-188.45904615 20.68888135 -185.13609707 20.46974196 -181.8125 20.25 C-180.66201172 20.188125 -179.51152344 20.12625 -178.32617188 20.0625 C-177.21435547 19.98515625 -176.10253906 19.9078125 -174.95703125 19.828125 C-173.93585205 19.7652832 -172.91467285 19.70244141 -171.86254883 19.63769531 C-168.31237309 18.84681608 -166.58886487 17.52629667 -164 15 C-162.12946881 11.92820764 -161.65636403 9.31394444 -161.375 5.75 C-161.30023438 4.85796875 -161.22546875 3.9659375 -161.1484375 3.046875 C-161.09945312 2.37140625 -161.05046875 1.6959375 -161 1 C-140.15586146 0.86957834 -119.31172269 0.73919215 -98.46758366 0.60884857 C-88.78999382 0.54833136 -79.11240405 0.48780241 -69.43481445 0.42724609 C-61.00299689 0.37448507 -52.57117919 0.32174579 -44.13936132 0.26903296 C-39.67193335 0.24110336 -35.20450545 0.21316264 -30.73707771 0.18519592 C-26.53716486 0.15890423 -22.33725182 0.13264147 -18.13733864 0.10640144 C-16.59131615 0.09673708 -15.04529374 0.0870619 -13.49927139 0.07737541 C-11.3976722 0.06420958 -9.29607276 0.05108171 -7.19447327 0.03796387 C-6.01550004 0.03058952 -4.83652681 0.02321518 -3.62182713 0.01561737 C-1 0 -1 0 0 0 Z " fill="#656660" transform="translate(564,680)"/>
<path d="M0 0 C0.93359375 2.0546875 0.93359375 2.0546875 1 5 C-0.97552625 7.71422936 -3.46298908 9.87057364 -5.9375 12.125 C-12.12669146 18.02886901 -17.3906955 23.75353124 -22 31 C-22.47695313 31.7321875 -22.95390625 32.464375 -23.4453125 33.21875 C-31.76311368 46.96553519 -33.35145759 63.1125911 -33.3125 78.8125 C-33.32861328 80.03775391 -33.34472656 81.26300781 -33.36132812 82.52539062 C-33.37541572 110.88372706 -28.33835335 139.37635148 -24.52941895 167.41931152 C-23.84776513 172.44029135 -23.17077976 177.46185854 -22.49988174 182.48428726 C-22.19141029 184.77994593 -21.87640474 187.0746391 -21.56100464 189.36935425 C-20.27377648 198.90173365 -19.47118623 208.3930419 -19 218 C-14.15333623 217.92143486 -14.15333623 217.92143486 -9.30712891 217.81982422 C-7.53712725 217.8051883 -5.76727545 217.90071486 -4 218 C-1.45692398 220.54307602 -1.17080225 222.48550262 -0.2734375 225.9609375 C0.0359375 227.15460938 0.3453125 228.34828125 0.6640625 229.578125 C0.98117187 230.83109375 1.29828125 232.0840625 1.625 233.375 C1.94984375 234.62023437 2.2746875 235.86546875 2.609375 237.1484375 C5 246.46986607 5 246.46986607 5 251 C-32.95 251 -70.9 251 -110 251 C-110 250.67 -110 250.34 -110 250 C-82.61 250 -55.22 250 -27 250 C-27.28875 242.471875 -27.5775 234.94375 -27.875 227.1875 C-27.96120605 224.85453857 -28.04741211 222.52157715 -28.13623047 220.11791992 C-28.84882448 201.76139467 -30.75547282 183.82915109 -33.58416748 165.68798828 C-34.80045694 157.8257561 -35.94768936 149.95280083 -37.10717773 142.08203125 C-37.41076426 140.02708415 -37.71610347 137.97239523 -38.02319336 135.91796875 C-40.75622312 117.62221612 -43.40744616 99.35141583 -43.3125 80.8125 C-43.30686035 79.61979492 -43.3012207 78.42708984 -43.29541016 77.19824219 C-42.95715428 52.50221387 -35.47025608 29.16742592 -18 11 C-17.34 11 -16.68 11 -16 11 C-15.63841797 10.12601562 -15.63841797 10.12601562 -15.26953125 9.234375 C-13.75558335 6.5698267 -12.09148847 5.14086824 -9.6875 3.25 C-8.92824219 2.63640625 -8.16898438 2.0228125 -7.38671875 1.390625 C-4.6715978 -0.191344 -3.08901036 -0.2842983 0 0 Z " fill="#093426" transform="translate(682,365)"/>
<path d="M0 0 C8.14114748 4.12343833 12.48955032 9.75087793 16.375 17.875 C18.04482731 26.22413656 17.66586395 33.70483813 13 41 C8.59544948 45.52045975 3.70662557 47.09891796 -2.5234375 47.1953125 C-4.14074138 47.18216369 -5.7579902 47.15852652 -7.375 47.125 C-8.20644531 47.11597656 -9.03789062 47.10695313 -9.89453125 47.09765625 C-11.92981337 47.0742622 -13.96494564 47.03839725 -16 47 C-17.85687154 41.91140818 -18.92950791 36.81823552 -19.9453125 31.515625 C-20.12005096 30.61882019 -20.29478943 29.72201538 -20.474823 28.79803467 C-20.8413908 26.91243569 -21.20603096 25.02646106 -21.56884766 23.14013672 C-22.12598767 20.24486741 -22.68945554 17.35088324 -23.25390625 14.45703125 C-23.6097454 12.62246764 -23.96522677 10.78783459 -24.3203125 8.953125 C-24.48902863 8.08544495 -24.65774475 7.21776489 -24.83157349 6.3237915 C-26 0.23247933 -26 0.23247933 -26 -2 C-17.70400705 -4.76533098 -7.90622352 -3.47873835 0 0 Z " fill="#FAFAFA" transform="translate(181,544)"/>
<path d="M0 0 C1.26286068 -0.00170885 2.52572135 -0.0034177 3.82685053 -0.00517833 C7.32502528 -0.00964426 10.82307726 -0.00165861 14.32123637 0.00837779 C18.09621722 0.01702089 21.87119124 0.01409152 25.6461792 0.01257324 C32.18424492 0.01152494 38.72227071 0.01779587 45.26032639 0.02904892 C54.71323236 0.0453083 64.16611903 0.05051238 73.61903746 0.0530249 C88.95604772 0.05740132 104.2930367 0.07070897 119.6300354 0.08963013 C134.52782078 0.10799031 149.42560037 0.12214614 164.32339478 0.13064575 C165.70102222 0.13143392 165.70102222 0.13143392 167.10648052 0.13223802 C171.71395063 0.13484811 176.32142077 0.13737552 180.92889094 0.13986182 C219.14780947 0.16059265 257.36670423 0.19581673 295.58560181 0.24050903 C295.58560181 0.57050903 295.58560181 0.90050903 295.58560181 1.24050903 C244.10560181 1.73550903 244.10560181 1.73550903 191.58560181 2.24050903 C191.25560181 3.23050903 190.92560181 4.22050903 190.58560181 5.24050903 C191.57560181 5.90050903 192.56560181 6.56050903 193.58560181 7.24050903 C166.56939598 7.26386076 139.55319166 7.28149941 112.53697777 7.29232121 C99.99312376 7.29747932 87.44927601 7.30451282 74.90542603 7.31594849 C63.97327979 7.32591009 53.0411381 7.33236599 42.10898745 7.33459753 C36.31956395 7.33590211 30.53015344 7.33897212 24.7407341 7.34623909 C19.2924006 7.35302256 13.84408546 7.35512123 8.39574814 7.35361671 C6.39547119 7.35389199 4.39519364 7.35588332 2.39492035 7.35971451 C-0.33553791 7.36468805 -3.06592686 7.36349375 -5.79638672 7.36076355 C-6.58822692 7.36367639 -7.38006711 7.36658923 -8.19590247 7.36959034 C-12.37512176 7.35829216 -16.31474428 7.06078832 -20.41439819 6.24050903 C-19.78939819 4.36550903 -19.78939819 4.36550903 -18.41439819 2.24050903 C-12.59193912 -0.57686167 -6.31413218 -0.03114831 0 0 Z " fill="#CAC7C7" transform="translate(34.414398193359375,411.7594909667969)"/>
<path d="M0 0 C1.32 0.66 2.64 1.32 4 2 C3.43755647 6.68702941 1.36522093 10.23712294 -1.0625 14.1875 C-1.465896 14.85023926 -1.86929199 15.51297852 -2.28491211 16.19580078 C-5.7773711 21.83162393 -9.67617445 26.97290162 -14 32 C-14.60070312 32.75667969 -15.20140625 33.51335937 -15.8203125 34.29296875 C-23.78604335 43.97516462 -34.39055966 50.49113479 -46 55 C-46.78117187 55.30679688 -47.56234375 55.61359375 -48.3671875 55.9296875 C-57.75735473 59.34133995 -67.106831 59.1376175 -77 59 C-77.02712153 57.083412 -77.04645097 55.1667127 -77.0625 53.25 C-77.07410156 52.18265625 -77.08570313 51.1153125 -77.09765625 50.015625 C-77.01431442 47.44202917 -76.66945353 45.45543509 -76 43 C-75.38705078 42.87995605 -74.77410156 42.75991211 -74.14257812 42.63623047 C-61.30465786 40.08448977 -49.00436997 37.28520043 -37 32 C-36.02160156 31.57332031 -35.04320312 31.14664062 -34.03515625 30.70703125 C-20.70266941 24.18425074 -10.76168177 11.85566335 -1 1 C-0.67 0.67 -0.34 0.34 0 0 Z " fill="#BA7A56" transform="translate(526,262)"/>
<path d="M0 0 C5.99002586 0.05030666 11.97995837 0.08585284 17.97011465 0.1139338 C23.82009381 0.14219012 29.66986078 0.18667537 35.51968575 0.23723602 C37.9783969 0.2563483 40.43715023 0.27068642 42.89591789 0.28003693 C46.30328966 0.29435441 49.71000306 0.32722708 53.1171875 0.36474609 C54.11700653 0.36488205 55.11682556 0.36501801 56.14694214 0.36515808 C61.77152342 0.44966023 66.11028098 0.81492775 70.95727539 3.81298828 C71.63758755 6.42451859 71.63758755 6.42451859 71.95727539 8.81298828 C51.11313936 8.83631541 30.26900547 8.85396654 9.42485905 8.86480045 C-0.25273512 8.86996381 -9.93032119 8.87700725 -19.60791016 8.88842773 C-28.03972792 8.89837337 -36.47153982 8.90484142 -44.90336329 8.90707678 C-49.37079853 8.90838409 -53.83821701 8.91147123 -58.3056469 8.91871834 C-62.5055662 8.92547666 -66.70546174 8.92760563 -70.90538597 8.92609596 C-72.4514097 8.92637238 -73.99743417 8.92837861 -75.54345322 8.93219376 C-77.64508237 8.93712808 -79.74662033 8.93598756 -81.84825134 8.9332428 C-83.61671118 8.93462549 -83.61671118 8.93462549 -85.42089748 8.93603611 C-88.04272461 8.81298828 -88.04272461 8.81298828 -89.04272461 7.81298828 C-89.04272461 6.14632161 -89.04272461 4.47965495 -89.04272461 2.81298828 C-89.37272461 2.15298828 -89.70272461 1.49298828 -90.04272461 0.81298828 C-60.02561272 -0.32001223 -30.0337037 -0.25550449 0 0 Z " fill="#A1A09B" transform="translate(491.042724609375,672.18701171875)"/>
<path d="M0 0 C3.8834461 -0.56830919 6.44065298 -0.14522223 9.625 2.0625 C12.90768007 5.26109454 13.85992483 8.19332099 14.96875 12.6015625 C15.1344046 13.25541428 15.3000592 13.90926605 15.47073364 14.58293152 C17.307137 21.97181894 18.8508404 29.42651098 20.37750244 36.88433838 C21.23607047 41.07479499 22.10958094 45.26212364 22.984375 49.44921875 C23.15715973 50.27659546 23.32994446 51.10397217 23.50796509 51.9564209 C25.14733247 59.76950147 26.92881663 67.54625901 28.75897217 75.31671143 C30.52660463 82.86260746 32.18684154 90.42687285 33.796875 98.0078125 C34.32604571 100.48818015 34.85551382 102.96848436 35.38525391 105.44873047 C35.78735077 107.33177887 35.78735077 107.33177887 36.1975708 109.25286865 C37.45707492 115.13441854 38.73160015 121.01268143 40.0078125 126.890625 C40.25893799 128.04778015 40.51006348 129.2049353 40.76879883 130.39715576 C41.55402204 134.014809 42.33950716 137.6324053 43.125 141.25 C46.52797656 156.92486601 49.92242679 172.60131166 53.265625 188.2890625 C53.52703278 189.51503647 53.78844055 190.74101044 54.05776978 192.00413513 C56.14013539 201.77098452 56.14013539 201.77098452 57.13031006 206.42544556 C60.58574562 222.66600718 60.58574562 222.66600718 64.3046875 238.84765625 C64.47563934 239.56554321 64.64659119 240.28343018 64.82272339 241.02307129 C65.5715407 244.15210232 66.33549023 247.2763513 67.12255859 250.39599609 C68.60710769 256.44838855 69.28608481 261.76465142 69 268 C68.01 268.33 67.02 268.66 66 269 C65.79246094 267.84371094 65.58492188 266.68742187 65.37109375 265.49609375 C63.28576793 254.11310717 60.87966926 242.82510326 58.30319214 231.5435791 C55.80595355 220.60483108 53.37097853 209.6543477 51 198.6875 C50.83197876 197.91068878 50.66395752 197.13387756 50.49084473 196.33352661 C48.08973013 185.21564102 45.77196378 174.08240776 43.5 162.9375 C40.37868789 147.62873562 37.01120031 132.38073465 33.59432983 117.13560486 C31.49549422 107.76274017 29.43402581 98.38167703 27.375 89 C27.1836145 88.12852325 26.992229 87.25704651 26.79504395 86.35916138 C24.70268604 76.82823361 22.62557768 67.29452262 20.59375 57.75048828 C19.65504048 53.34199715 18.70739364 48.93545773 17.7578125 44.52929688 C17.21249814 41.98964982 16.670855 39.44938735 16.1328125 36.90820312 C15.37610795 33.33891609 14.60552128 29.77284083 13.82672119 26.20831299 C13.52963343 24.83816076 13.2369824 23.46703766 12.94915771 22.09490967 C12.54848388 20.18830164 12.13002146 18.28545864 11.7109375 16.3828125 C11.47681152 15.29371582 11.24268555 14.20461914 11.00146484 13.08251953 C9.37198564 8.06696508 7.33912538 4.77257233 2.75 2.125 C1.8425 1.75375 0.935 1.3825 0 1 C0 0.67 0 0.34 0 0 Z " fill="#92918E" transform="translate(327,420)"/>
<path d="M0 0 C1.89640893 0.80594071 3.78824893 1.62270256 5.67578125 2.44921875 C12.31452846 5.33383032 18.70727149 7.76141576 25.78442383 9.35229492 C27.98828125 10.13671875 27.98828125 10.13671875 29.98828125 13.13671875 C15.21139115 21.92297773 -6.94102778 19.28628632 -23.57421875 19.19921875 C-25.27929553 19.19418423 -26.98437379 19.18962484 -28.68945312 19.18554688 C-32.79691253 19.17471759 -36.90429848 19.15756534 -41.01171875 19.13671875 C-39.97401971 14.18954891 -37.57043314 12.96545049 -33.44140625 10.21875 C-29.13812614 7.55198433 -24.71357109 5.10740196 -20.26171875 2.69921875 C-19.44590332 2.24981934 -18.63008789 1.80041992 -17.78955078 1.33740234 C-11.07604624 -2.20404339 -7.17225147 -2.82334373 0 0 Z " fill="#084431" transform="translate(495.01171875,652.86328125)"/>
<path d="M0 0 C1.66611905 -0.042721 3.33382885 -0.04063832 5 0 C6 1 6 1 6.10006714 2.86558533 C6.08879791 3.68458817 6.07752869 4.503591 6.06591797 5.34741211 C6.05628021 6.27983734 6.04664246 7.21226257 6.03671265 8.17294312 C6.02201935 9.19739532 6.00732605 10.22184753 5.9921875 11.27734375 C5.97232328 13.47012477 5.95348521 15.66291527 5.93554688 17.85571289 C5.92515381 19.01249542 5.91476074 20.16927795 5.90405273 21.3611145 C5.74314422 41.16891836 6.17997561 60.627603 8.34375 80.31640625 C8.99160289 86.2356559 9.16525065 92.05021173 9 98 C8.67 97.01 8.34 96.02 8 95 C6.515 95.495 6.515 95.495 5 96 C2.4375938 85.44891565 0.05678065 74.85982196 -2.25 64.25 C-2.52021973 63.02442383 -2.79043945 61.79884766 -3.06884766 60.53613281 C-3.31940918 59.37436523 -3.5699707 58.21259766 -3.828125 57.015625 C-4.0540332 55.97696289 -4.27994141 54.93830078 -4.51269531 53.86816406 C-4.96984656 51.17747624 -5.09385776 48.72187497 -5 46 C-4.34 46 -3.68 46 -3 46 C-3.01571045 45.13947021 -3.0314209 44.27894043 -3.04760742 43.39233398 C-3.09951511 40.12127354 -3.13671974 36.85066634 -3.16479492 33.5793457 C-3.17964771 32.17823268 -3.19993556 30.77716405 -3.22631836 29.3762207 C-3.41332392 19.1715841 -2.38960287 9.9436575 0 0 Z " fill="#0A3325" transform="translate(358,402)"/>
<path d="M0 0 C8.38736923 -0.53253138 13.73604967 1.34687535 20.8125 5.75 C25.37945876 10.44744329 27.24134153 15.06934578 27.5 21.625 C27.30537933 26.47038364 26.3709902 29.35568627 23 33 C19.56258942 36.12491871 16.78246452 36.12937866 12.31640625 36.0703125 C11.3219751 36.06016113 10.32754395 36.05000977 9.30297852 36.03955078 C8.54299561 36.02649902 7.7830127 36.01344727 7 36 C6.00057578 31.19501746 5.00372523 26.38951102 4.00927734 21.58349609 C3.67047031 19.94793194 3.33095501 18.31251434 2.99072266 16.67724609 C2.50237628 14.32948173 2.01656256 11.98120561 1.53125 9.6328125 C1.30157532 8.53273361 1.30157532 8.53273361 1.06726074 7.41043091 C0 2.22774341 0 2.22774341 0 0 Z " fill="#A7A5A2" transform="translate(163,548)"/>
<path d="M0 0 C2.91983629 1.35923414 5.2180555 2.58142356 7.625 4.6875 C6.625 6.6875 5.625 8.6875 4.625 10.6875 C-0.375 8.6875 -0.375 8.6875 -2.8125 7.5625 C-7.01043517 6.12905872 -10.06927747 6.09398976 -14.125 7.9375 C-16.58157777 9.8481716 -17.26649626 10.82304785 -18.375 13.6875 C-19.23778493 21.2719815 -19.19408464 28.47264389 -14.375 34.6875 C-10.41778876 38.71537572 -7.22662467 40.83559671 -1.5625 40.9375 C2.65000523 40.91311502 5.24512113 40.3914031 8.625 37.6875 C10.275 39.6675 11.925 41.6475 13.625 43.6875 C8.65063614 47.99861534 5.77499842 50.0336996 -1.1328125 49.89453125 C-8.03214229 49.25748512 -13.46888849 46.63943315 -18.515625 41.92578125 C-24.59588934 34.60647144 -27.75593786 26.021323 -27.65625 16.61328125 C-27.09769363 10.8027435 -25.04392412 6.31470102 -20.875 2.25 C-14.07751427 -1.99842858 -7.69378475 -2.73748896 0 0 Z " fill="#FBFBFB" transform="translate(226.375,542.3125)"/>
<path d="M0 0 C1.31830307 -0.01062721 1.31830307 -0.01062721 2.66323853 -0.02146912 C4.09791222 -0.01775299 4.09791222 -0.01775299 5.56156921 -0.01396179 C6.57503418 -0.01907272 7.58849915 -0.02418365 8.63267517 -0.02944946 C11.98623038 -0.04336023 15.33958036 -0.04238729 18.69316101 -0.04008484 C21.0248014 -0.04397148 23.35644108 -0.04830608 25.68807983 -0.05307007 C30.57806186 -0.06053587 35.4679717 -0.06023875 40.35795593 -0.05497742 C46.61918865 -0.04918807 52.88012505 -0.06609937 59.14130878 -0.08932209 C63.95835086 -0.10406832 68.77532178 -0.1049298 73.59238243 -0.10181236 C75.90041375 -0.10232531 78.20844908 -0.1075581 80.51645851 -0.11762428 C83.74783574 -0.12998569 86.97863841 -0.12319789 90.21000671 -0.11161804 C91.16038315 -0.11926178 92.11075958 -0.12690552 93.0899353 -0.13478088 C98.62443074 -0.0910308 102.80374203 0.32847688 107.57987976 3.26069641 C107.90987976 4.91069641 108.23987976 6.56069641 108.57987976 8.26069641 C56.10987976 7.93069641 3.63987976 7.60069641 -50.42012024 7.26069641 C-50.42012024 6.93069641 -50.42012024 6.60069641 -50.42012024 6.26069641 C-14.45012024 5.93069641 21.51987976 5.60069641 58.57987976 5.26069641 C58.57987976 4.60069641 58.57987976 3.94069641 58.57987976 3.26069641 C25.41487976 2.76569641 25.41487976 2.76569641 -8.42012024 2.26069641 C-4.79069445 0.44598351 -3.75552119 0.01012386 0 0 Z " fill="#B5B1AF" transform="translate(454.4201202392578,672.7393035888672)"/>
<path d="M0 0 C0.495 2.475 0.495 2.475 1 5 C-0.05574219 5.56654297 -0.05574219 5.56654297 -1.1328125 6.14453125 C-21.49742618 17.49660702 -41.05406222 34.67830146 -53.9375 54.125 C-54.31567871 54.68703125 -54.69385742 55.2490625 -55.08349609 55.828125 C-57.82725953 60.13993232 -58.9685367 64.06409707 -60 69 C-64.66361428 64.78770323 -64.66361428 64.78770323 -65 61 C-59.05879333 46.95129831 -47.38535537 34.91669913 -37 24 C-36.38511719 23.33226562 -35.77023437 22.66453125 -35.13671875 21.9765625 C-28.1817111 14.63977639 -19.62837483 9.25898098 -11.0625 4 C-10.42376953 3.60184082 -9.78503906 3.20368164 -9.12695312 2.79345703 C-5.71729865 0.74603726 -4.07992551 0 0 0 Z " fill="#B97955" transform="translate(480,597)"/>
<path d="M0 0 C0.04241723 2.33294775 0.04092937 4.66702567 0 7 C-1 8 -1 8 -3.14208984 8.05004883 C-4.07230957 8.01935303 -5.0025293 7.98865723 -5.9609375 7.95703125 C-6.99089844 7.93576172 -8.02085937 7.91449219 -9.08203125 7.89257812 C-11.23862631 7.84013424 -13.39496736 7.77549011 -15.55078125 7.69726562 C-22.24217343 7.58560457 -27.38443565 8.44226247 -33.54931641 11.08886719 C-37.24052111 12.46120988 -41.13862766 12.89294235 -45 12 C-46.8125 10.72265625 -46.8125 10.72265625 -48 9 C-47.86163838 6.46995887 -47.28987991 5.32570777 -45.609375 3.4375 C-31.86309337 -7.1898774 -15.13380399 -7.76092512 0 0 Z " fill="#372719" transform="translate(489,145)"/>
<path d="M0 0 C0.495 2.475 0.495 2.475 1 5 C0.07960938 5.40089844 -0.84078125 5.80179688 -1.7890625 6.21484375 C-15.13486365 12.15638234 -26.80818833 19.55942505 -38 29 C-38.63421875 29.51175781 -39.2684375 30.02351562 -39.921875 30.55078125 C-47.64454751 36.88952351 -55.79397811 45.38193433 -59 55 C-60.9375 54.3125 -60.9375 54.3125 -63 53 C-63.94314977 50.18476903 -64.28148611 48.65965657 -63.1015625 45.89453125 C-55.91510446 35.76124517 -47.80885076 27.60219572 -38 20 C-37.13246094 19.28199219 -36.26492188 18.56398438 -35.37109375 17.82421875 C-28.99153642 12.71512803 -22.26910798 8.76728328 -15.0625 4.9375 C-14.15000488 4.44781738 -13.23750977 3.95813477 -12.29736328 3.45361328 C-10.9919458 2.77854736 -10.9919458 2.77854736 -9.66015625 2.08984375 C-8.88293213 1.68628662 -8.10570801 1.28272949 -7.30493164 0.86694336 C-4.72505165 -0.10341506 -2.73395656 -0.16167423 0 0 Z " fill="#BA7955" transform="translate(496,616)"/>
<path d="M0 0 C2.625 0.375 2.625 0.375 5 1 C6.6413728 13.58385816 1.51189626 25.47597995 -3.20703125 36.9296875 C-4.28930664 39.7553326 -4.33246942 42.00777526 -4 45 C-0.32718211 47.44854526 2.33891524 47.15983291 6.5625 47 C9.06854768 46.90569905 11.4871429 46.90682338 14 47 C14.66 47.66 15.32 48.32 16 49 C15.875 51 15.875 51 15 53 C10.01099529 56.32992532 3.72746516 55.45648539 -2 55 C-6.7122649 53.42924503 -9.57991917 51.3747615 -12 47 C-12.9020772 39.939465 -11.41775107 34.31483875 -8.6875 27.875 C-5.65927152 20.29270321 -3.80602244 13.09280849 -2.60546875 5.02734375 C-2 2 -2 2 0 0 Z " fill="#B87955" transform="translate(420,181)"/>
<path d="M0 0 C3.43073821 2.06670976 3.84008641 2.65012992 5.1875 6.625 C4.9375 9.9375 4.9375 9.9375 2.9375 11.9375 C0.97436523 11.90966797 0.97436523 11.90966797 -1.44140625 11.5546875 C-8.34143782 10.70846892 -15.17441905 10.95203125 -22.11132812 11.15234375 C-23.09423828 11.16652344 -24.07714844 11.18070313 -25.08984375 11.1953125 C-26.41616821 11.22842529 -26.41616821 11.22842529 -27.76928711 11.26220703 C-30.0625 10.9375 -30.0625 10.9375 -31.87329102 9.57373047 C-33.0625 7.9375 -33.0625 7.9375 -33.0625 5.5 C-31.75410549 2.14723906 -30.02634813 0.91339875 -27.0625 -1.0625 C-19.12130622 -3.70956459 -7.67122222 -3.40075985 0 0 Z " fill="#38271A" transform="translate(402.0625,147.0625)"/>
<path d="M0 0 C40.36214541 -0.72029087 40.36214541 -0.72029087 55 5 C55.9375 7.0625 55.9375 7.0625 56 9 C55.67 9.33 55.34 9.66 55 10 C53.14277486 9.93462568 51.28795601 9.79638141 49.4375 9.625 C48.42558594 9.53476562 47.41367187 9.44453125 46.37109375 9.3515625 C44.01468175 9.10581849 41.66294197 8.81273921 39.31665039 8.48413086 C35.04973341 7.94908199 30.85807986 7.87173356 26.5625 7.90234375 C25.79695801 7.9037587 25.03141602 7.90517365 24.24267578 7.90663147 C21.82840858 7.91217147 19.41423856 7.92471221 17 7.9375 C15.35026177 7.94252277 13.70052206 7.94708431 12.05078125 7.95117188 C8.03381745 7.96212114 4.01692513 7.97934334 0 8 C-1.125 2.25 -1.125 2.25 0 0 Z " fill="#B97854" transform="translate(687,608)"/>
<path d="M0 0 C0.81259277 0.40943848 1.62518555 0.81887695 2.46240234 1.24072266 C4.16140634 2.07058956 5.86062391 2.90001934 7.56005859 3.72900391 C8.78039795 4.33156006 8.78039795 4.33156006 10.02539062 4.94628906 C17.30775172 8.52977345 24.52423117 11.63907918 32.27490234 14.05322266 C32.27490234 14.38322266 32.27490234 14.71322266 32.27490234 15.05322266 C13.98684257 18.68713518 -5.77215824 9.19233819 -21.72509766 1.05322266 C-20.35711555 0.37227156 -18.98025762 -0.29085974 -17.60009766 -0.94677734 C-16.83439453 -1.31802734 -16.06869141 -1.68927734 -15.27978516 -2.07177734 C-9.35635182 -4.10059855 -5.38816645 -2.62358074 0 0 Z " fill="#BC7A56" transform="translate(507.72509765625,648.94677734375)"/>
<path d="M0 0 C0.99 0.33 1.98 0.66 3 1 C3.3125 3.75 3.3125 3.75 3 7 C-2.85093715 13.65796296 -14.4635522 17.42008701 -23.11889648 18.18798828 C-25.27065224 18.26623395 -27.40955953 18.27338035 -29.5625 18.25 C-30.63661133 18.26160156 -30.63661133 18.26160156 -31.73242188 18.2734375 C-37.20275509 18.25352728 -42.94992097 18.05007903 -47 14 C-46.625 11.875 -46.625 11.875 -46 10 C-45.00097656 10.15855469 -44.00195312 10.31710938 -42.97265625 10.48046875 C-29.82227382 12.33928505 -15.26218428 11.9758996 -4.1875 3.8125 C-2.73016846 2.5851099 -1.34594678 1.34594678 0 0 Z " fill="#B77854" transform="translate(465,245)"/>
<path d="M0 0 C2.77377924 2.09574431 3.68969601 2.89948644 5 6 C5.72459899 11.79001998 6.13682555 17.50033313 3.68359375 22.89453125 C2 25 2 25 -1.4375 25.625 C-5 25 -5 25 -7.375 22.75 C-10.32526275 17.75724766 -10.57207373 12.70101057 -10 7 C-7.86033885 1.5535898 -6.11698671 -0.99578853 0 0 Z " fill="#362619" transform="translate(471,171)"/>
<path d="M0 0 C0.94875 0.04125 1.8975 0.0825 2.875 0.125 C3.578125 2.390625 3.578125 2.390625 3.875 5.125 C2.546875 7.046875 2.546875 7.046875 0.625 8.875 C-5.47026418 15.37094888 -6.41286455 22.14535429 -6.81640625 30.83984375 C-7.125 33.125 -7.125 33.125 -9.125 35.125 C-13.68055556 34.56944444 -13.68055556 34.56944444 -15.125 33.125 C-16.38337061 23.47061568 -13.78391704 13.24862326 -8 5.4375 C-3.6254872 0.14501949 -3.6254872 0.14501949 0 0 Z " fill="#B97A55" transform="translate(565.125,156.875)"/>
<path d="M0 0 C3.4375 1.1875 3.4375 1.1875 5.375 3.5 C7.1201334 9.55663944 7.85085702 16.20008356 5.09765625 22.01953125 C3.4375 24.1875 3.4375 24.1875 0.5 24.8125 C-2.5625 24.1875 -2.5625 24.1875 -4.875 21.875 C-8.2046165 16.57227742 -8.18485741 11.28660259 -7.5625 5.1875 C-5.51465246 0.92797712 -4.73630836 0.24927939 0 0 Z " fill="#352518" transform="translate(391.5625,173.8125)"/>
<path d="M0 0 C7.77121047 -0.02316284 15.54241286 -0.04093523 23.31364918 -0.05181217 C26.92208385 -0.05703236 30.53049492 -0.06411436 34.13891602 -0.07543945 C37.62076233 -0.086299 41.10258592 -0.09228336 44.58444786 -0.09487724 C46.56035995 -0.0976261 48.5362629 -0.10543327 50.51216125 -0.11329651 C51.71317978 -0.11337204 52.9141983 -0.11344757 54.15161133 -0.11352539 C55.21084305 -0.115746 56.27007477 -0.11796661 57.36140442 -0.12025452 C60 0 60 0 63 1 C63.495 2.485 63.495 2.485 64 4 C40.24 4 16.48 4 -8 4 C-8 3.67 -8 3.34 -8 3 C-5.36 3 -2.72 3 0 3 C0 2.01 0 1.02 0 0 Z " fill="#A8A8A4" transform="translate(450,675)"/>
<path d="M0 0 C0.33 0 0.66 0 1 0 C2.95684184 23.40683895 4.70872038 47.6790634 1 71 C0.67 71 0.34 71 0 71 C-0.33 67.7 -0.66 64.4 -1 61 C-0.67 61 -0.34 61 0 61 C-0.01474869 60.39802292 -0.02949738 59.79604584 -0.04469299 59.17582703 C-0.19807559 52.86469261 -0.3426038 46.55339793 -0.48217773 40.24194336 C-0.53528204 37.89195691 -0.59058297 35.54201897 -0.64819336 33.19213867 C-0.73099353 29.79877174 -0.80568092 26.40530423 -0.87890625 23.01171875 C-0.90594131 21.97480392 -0.93297638 20.9378891 -0.96083069 19.86955261 C-1.09530563 13.17663628 -0.74773782 6.65218059 0 0 Z " fill="#CDA885" transform="translate(794,586)"/>
<path d="M0 0 C0.75579346 -0.00064453 1.51158691 -0.00128906 2.2902832 -0.00195312 C7.54233464 0.048931 12.66294193 0.54244331 17.875 1.1875 C17.875 1.5175 17.875 1.8475 17.875 2.1875 C16.83569336 2.21255615 15.79638672 2.2376123 14.72558594 2.26342773 C10.86397297 2.35770926 7.00253117 2.45787908 3.14111328 2.55981445 C1.47090666 2.60308489 -0.19934194 2.64476549 -1.86962891 2.68481445 C-4.27258955 2.74270851 -6.67534041 2.8063474 -9.078125 2.87109375 C-9.82306213 2.88780624 -10.56799927 2.90451874 -11.33551025 2.92173767 C-14.73930251 3.01866378 -17.85139515 3.23874267 -21.125 4.1875 C-23.83265395 4.03432979 -26.43758733 3.5906119 -29.125 3.1875 C-29.125 2.8575 -29.125 2.5275 -29.125 2.1875 C-19.41513894 0.96968988 -9.79534551 -0.0078638 0 0 Z " fill="#43614B" transform="translate(487.125,2.8125)"/>
<path d="M0 0 C2.97 1.32 5.94 2.64 9 4 C7.5625 6.125 7.5625 6.125 5 8 C-1.19203336 7.87834905 -6.68557862 4.8987753 -12 2 C-9.11301479 0.5565074 -7.10530768 1.36626374 -4 2 C-3.01 2.33 -2.02 2.66 -1 3 C-0.67 2.01 -0.34 1.02 0 0 Z " fill="#C4805B" transform="translate(513,654)"/>
<path d="M0 0 C2.31 1.32 4.62 2.64 7 4 C7 4.33 7 4.66 7 5 C-5.54 5 -18.08 5 -31 5 C-30.67 3.68 -30.34 2.36 -30 1 C-30 1.99 -30 2.98 -30 4 C-26.87463363 3.86142159 -23.74981783 3.71290431 -20.625 3.5625 C-19.29082031 3.50352539 -19.29082031 3.50352539 -17.9296875 3.44335938 C-17.07890625 3.40146484 -16.228125 3.35957031 -15.3515625 3.31640625 C-14.56604004 3.27974854 -13.78051758 3.24309082 -12.97119141 3.20532227 C-10.92476504 3.109109 -10.92476504 3.109109 -9 2 C-6.6599583 2.28241883 -4.32495277 2.61250787 -2 3 C-1.34 2.01 -0.68 1.02 0 0 Z " fill="#01160B" transform="translate(432,668)"/>
<path d="M0 0 C0.99 0.33 1.98 0.66 3 1 C3.2358396 6.77807024 2.86783046 11.51324804 1 17 C-1.35959872 14.64040128 -2.09108722 13.21615293 -3 10 C-2.87314652 7.26503906 -2.45923585 4.70949154 -2 2 C-1.34 2 -0.68 2 0 2 C0 1.34 0 0.68 0 0 Z " fill="#B8B8B4" transform="translate(381,590)"/>
<path d="M0 0 C3.17346715 4.23128953 3.36508634 4.71335332 3.109375 9.61328125 C3.05910156 10.69673828 3.00882813 11.78019531 2.95703125 12.89648438 C2.88871094 14.02376953 2.82039062 15.15105469 2.75 16.3125 C2.69714844 17.42818359 2.64429688 18.54386719 2.58984375 19.69335938 C2.31000368 25.18278027 1.90759688 30.57789103 1 36 C0.67 36 0.34 36 0 36 C-0.33 32.7 -0.66 29.4 -1 26 C-0.67 26 -0.34 26 0 26 C0 17.42 0 8.84 0 0 Z " fill="#C19F7E" transform="translate(794,621)"/>
<path d="M0 0 C0.66 0.33 1.32 0.66 2 1 C1.43490723 1.55985596 0.86981445 2.11971191 0.28759766 2.6965332 C-2.26921512 5.23256957 -4.82214364 7.77248128 -7.375 10.3125 C-8.26445312 11.19357422 -9.15390625 12.07464844 -10.0703125 12.98242188 C-11.34648437 14.25375977 -11.34648437 14.25375977 -12.6484375 15.55078125 C-13.43395996 16.33106689 -14.21948242 17.11135254 -15.02880859 17.9152832 C-17.14761622 20.03877052 -17.14761622 20.03877052 -19 23 C-19.66 22.67 -20.32 22.34 -21 22 C-11.77386935 11.64824121 -11.77386935 11.64824121 -7 7 C-5.72782824 5.7305065 -4.45706567 4.45959973 -3.1875 3.1875 C-2.125 2.125 -1.0625 1.0625 0 0 Z " fill="#F3B894" transform="translate(461,641)"/>
<path d="M0 0 C1.305239 3.91571701 0.32239848 5.03892997 -1.4375 8.6875 C-1.91058594 9.68136719 -2.38367188 10.67523438 -2.87109375 11.69921875 C-3.24363281 12.45847656 -3.61617187 13.21773437 -4 14 C-5.32 14 -6.64 14 -8 14 C-8.33 11.03 -8.66 8.06 -9 5 C-8.38125 5.66 -7.7625 6.32 -7.125 7 C-5.24362573 9.2284549 -5.24362573 9.2284549 -3 9 C-2.01 6.03 -1.02 3.06 0 0 Z " fill="#261A10" transform="translate(539,160)"/>
<path d="M0 0 C5.94650633 0.64784186 11.67387483 1.71983435 17.5 3.0625 C18.73363281 3.3419043 18.73363281 3.3419043 19.9921875 3.62695312 C21.9955717 4.08120885 23.9979003 4.54011599 26 5 C26 5.33 26 5.66 26 6 C17.86894139 5.50877547 9.98079085 4.64733759 2 3 C2 2.34 2 1.68 2 1 C1.34 0.67 0.68 0.34 0 0 Z " fill="#193728" transform="translate(666,697)"/>
<path d="M0 0 C0.33 0 0.66 0 1 0 C1.72526532 7.84402334 2.21074074 15.19744856 1 23 C0.67 23 0.34 23 0 23 C-1.32870256 15.19387246 -1.32870256 7.80612754 0 0 Z " fill="#B69D7D" transform="translate(587,158)"/>
<path d="M0 0 C0.97812873 3.05628064 1.00835683 4.85277447 0.00390625 7.890625 C-0.33930664 8.95410156 -0.33930664 8.95410156 -0.68945312 10.0390625 C-0.93630859 10.76867187 -1.18316406 11.49828125 -1.4375 12.25 C-1.68048828 12.99507812 -1.92347656 13.74015625 -2.17382812 14.5078125 C-2.77332981 16.34158235 -3.38544487 18.17122004 -4 20 C-4.33 20 -4.66 20 -5 20 C-4.22095672 8.47835991 -4.22095672 8.47835991 -2 3 C-1.34 3 -0.68 3 0 3 C0 2.01 0 1.02 0 0 Z " fill="#BD9F7F" transform="translate(793,658)"/>
<path d="M0 0 C0.99 1.485 0.99 1.485 2 3 C2.804375 3.61875 2.804375 3.61875 3.625 4.25 C5.83184407 7.05871064 5.3024769 9.5517633 5 13 C3.98046875 15.22265625 3.98046875 15.22265625 3 17 C2.49255577 15.10614563 1.99435426 13.20981334 1.5 11.3125 C1.2215625 10.25675781 0.943125 9.20101563 0.65625 8.11328125 C0.0608285 5.28857328 -0.12786492 2.87163292 0 0 Z " fill="#092619" transform="translate(364,499)"/>
<path d="M0 0 C0.33 0 0.66 0 1 0 C1.22786458 2.05078125 1.45572917 4.1015625 1.68359375 6.15234375 C1.81886614 8.01140229 1.81886614 8.01140229 3 9 C3.07271741 11.35313555 3.08370868 13.70833668 3.0625 16.0625 C3.05347656 17.35285156 3.04445313 18.64320313 3.03515625 19.97265625 C3.02355469 20.97167969 3.01195312 21.97070312 3 23 C-0.82777809 15.78012589 -0.11791043 7.97860602 0 0 Z " fill="#F2BB95" transform="translate(367,182)"/>
<path d="M0 0 C0.66 0.33 1.32 0.66 2 1 C1.01 2.485 1.01 2.485 0 4 C1.98 4 3.96 4 6 4 C3 6 3 6 -1 6 C-1 6.66 -1 7.32 -1 8 C-2.32 8.33 -3.64 8.66 -5 9 C-4.5206753 4.68607774 -3.2542015 2.83430453 0 0 Z " fill="#ACB2AD" transform="translate(14,414)"/>
<path d="M0 0 C6.43974581 0.62320121 12.67572401 1.64008262 19 3 C18.67 3.66 18.34 4.32 18 5 C11.44074057 4.61020794 6.05473373 3.57886807 0 1 C0 0.67 0 0.34 0 0 Z " fill="#C9A685" transform="translate(424,300)"/>
<path d="M0 0 C6.27 0 12.54 0 19 0 C19 0.33 19 0.66 19 1 C10.585 1.495 10.585 1.495 2 2 C1.67 2.99 1.34 3.98 1 5 C0.67 3.35 0.34 1.7 0 0 Z " fill="#F5C49E" transform="translate(679,583)"/>
<path d="M0 0 C1.79232337 0.30871122 3.58384321 0.62209064 5.375 0.9375 C6.87160156 1.19853516 6.87160156 1.19853516 8.3984375 1.46484375 C11 2 11 2 13 3 C13 3.99 13 4.98 13 6 C11.58208592 5.54554036 10.16571954 5.08625056 8.75 4.625 C7.96109375 4.36976563 7.1721875 4.11453125 6.359375 3.8515625 C4.13372042 3.04826333 2.09068328 2.10288338 0 1 C0 0.67 0 0.34 0 0 Z " fill="#EABC97" transform="translate(575,664)"/>
<path d="M0 0 C2.10827055 3.16240582 2.33817465 4.50657469 2.625 8.1875 C2.69976562 9.08855469 2.77453125 9.98960937 2.8515625 10.91796875 C2.90054687 11.60503906 2.94953125 12.29210937 3 13 C2.34 13 1.68 13 1 13 C0.29826347 8.61414671 -0.10834375 4.44209357 0 0 Z " fill="#CDC5C4" transform="translate(383,594)"/>
<path d="M0 0 C0.33 0 0.66 0 1 0 C1.05395478 1.62463842 1.09277195 3.24978541 1.125 4.875 C1.14820313 5.77992188 1.17140625 6.68484375 1.1953125 7.6171875 C1 10 1 10 -1 12 C-2.07525194 9.34771188 -3.09456151 6.71631546 -4 4 C-3.01 3.67 -2.02 3.34 -1 3 C-0.67 2.01 -0.34 1.02 0 0 Z " fill="#133B2D" transform="translate(367,494)"/>
<path d="M0 0 C1.32 0.33 2.64 0.66 4 1 C3.34 2.32 2.68 3.64 2 5 C2.66 5.66 3.32 6.32 4 7 C0.65626525 6.44271087 -2.03312999 5.64826111 -5 4 C-4.360625 3.71125 -3.72125 3.4225 -3.0625 3.125 C-0.84793921 2.17176549 -0.84793921 2.17176549 0 0 Z " fill="#CC815C" transform="translate(496,648)"/>
<path d="M0 0 C4.455 0.99 4.455 0.99 9 2 C7.02 2.99 7.02 2.99 5 4 C3.73195434 6.0335948 3.73195434 6.0335948 3 8 C2.34 7.67 1.68 7.34 1 7 C0.59270772 4.67843403 0.25561323 2.3431213 0 0 Z " fill="#1A4C37" transform="translate(570,294)"/>
<path d="M0 0 C1.98 0.66 3.96 1.32 6 2 C4.68 2.33 3.36 2.66 2 3 C2 5.97 2 8.94 2 12 C1.67 12 1.34 12 1 12 C0.01751476 7.9472484 -0.08159574 4.16138263 0 0 Z " fill="#F4CBA4" transform="translate(361,105)"/>
<path d="M0 0 C0.71484375 1.765625 0.71484375 1.765625 1 4 C-0.43359375 5.921875 -0.43359375 5.921875 -2.4375 7.75 C-3.42556641 8.67039062 -3.42556641 8.67039062 -4.43359375 9.609375 C-5.20896484 10.29773438 -5.20896484 10.29773438 -6 11 C-6 7.39426104 -5.18292538 6.58663434 -3 3.8125 C-2.443125 3.09707031 -1.88625 2.38164063 -1.3125 1.64453125 C-0.879375 1.10183594 -0.44625 0.55914063 0 0 Z " fill="#0C3A28" transform="translate(442,599)"/>
<path d="M0 0 C0.474375 0.66 0.94875 1.32 1.4375 2 C2.2109375 2.99 2.2109375 2.99 3 4 C3.33 4 3.66 4 4 4 C4 6.64 4 9.28 4 12 C3.01 12.495 3.01 12.495 2 13 C-0.28571429 4.57142857 -0.28571429 4.57142857 0 0 Z " fill="#043520" transform="translate(350,434)"/>
<path d="M0 0 C0.33 0 0.66 0 1 0 C1 5.28 1 10.56 1 16 C-0.32 14.68 -1.64 13.36 -3 12 C-2.67 11.34 -2.34 10.68 -2 10 C-1.34 10.33 -0.68 10.66 0 11 C0 7.37 0 3.74 0 0 Z " fill="#413B2A" transform="translate(361,141)"/>
<path d="M0 0 C0.66 0 1.32 0 2 0 C3.10228696 4.40914783 3.07654536 8.48382401 3 13 C0.89172945 9.83759418 0.66182535 8.49342531 0.375 4.8125 C0.30023438 3.91144531 0.22546875 3.01039063 0.1484375 2.08203125 C0.09945313 1.39496094 0.05046875 0.70789063 0 0 Z " fill="#062115" transform="translate(370,526)"/>
<path d="M0 0 C0 0.66 0 1.32 0 2 C-0.99 2 -1.98 2 -3 2 C-3.33 2.99 -3.66 3.98 -4 5 C-5.98 5.33 -7.96 5.66 -10 6 C-4.4 0 -4.4 0 0 0 Z " fill="#2F5E47" transform="translate(377,344)"/>
<path d="M0 0 C0.33 0.66 0.66 1.32 1 2 C-0.175625 2.1546875 -0.175625 2.1546875 -1.375 2.3125 C-4.33045181 2.77595022 -4.33045181 2.77595022 -6 6 C-6.66 5.67 -7.32 5.34 -8 5 C-7.625 3.0625 -7.625 3.0625 -7 1 C-4.53721199 -0.231394 -2.7204945 -0.07159196 0 0 Z " fill="#251A10" transform="translate(471,171)"/>
<path d="M0 0 C0.66 0.99 1.32 1.98 2 3 C1.34 4.32 0.68 5.64 0 7 C-0.66 7 -1.32 7 -2 7 C-2.33 8.98 -2.66 10.96 -3 13 C-3.93045933 10.44855176 -4.08564091 9.25993522 -3.22265625 6.640625 C-2.83980469 5.85171875 -2.45695312 5.0628125 -2.0625 4.25 C-1.68222656 3.45078125 -1.30195313 2.6515625 -0.91015625 1.828125 C-0.60980469 1.22484375 -0.30945313 0.6215625 0 0 Z " fill="#404935" transform="translate(329,41)"/>
<path d="M0 0 C-1.32 0.33 -2.64 0.66 -4 1 C-4 1.66 -4 2.32 -4 3 C-7.4342662 3.85856655 -9.61682513 3.97591583 -13 3 C-11.21189234 2.30329584 -9.41937948 1.61788811 -7.625 0.9375 C-6.62726563 0.55464844 -5.62953125 0.17179687 -4.6015625 -0.22265625 C-2 -1 -2 -1 0 0 Z " fill="#42503D" transform="translate(402,22)"/>
<path d="M0 0 C3.8063457 0.67170806 7.35206816 1.72746564 11 3 C9.02 3.99 9.02 3.99 7 5 C7 4.34 7 3.68 7 3 C6.01 3.33 5.02 3.66 4 4 C1.8125 3.0625 1.8125 3.0625 0 2 C0 1.34 0 0.68 0 0 Z " fill="#285A42" transform="translate(635,314)"/>
<path d="M0 0 C4.455 0.99 4.455 0.99 9 2 C9 2.33 9 2.66 9 3 C5.37 3.33 1.74 3.66 -2 4 C-1.01 3.67 -0.02 3.34 1 3 C0.67 2.01 0.34 1.02 0 0 Z " fill="#B27450" transform="translate(531,661)"/>
<path d="M0 0 C1.9789756 3.63616656 2.5251065 6.88425629 3 11 C2.01 11.495 2.01 11.495 1 12 C0.03929566 9.11788698 -0.10581883 7.30149956 -0.0625 4.3125 C-0.05347656 3.50425781 -0.04445313 2.69601562 -0.03515625 1.86328125 C-0.02355469 1.24839844 -0.01195312 0.63351562 0 0 Z " fill="#1D513C" transform="translate(791,510)"/>
<path d="M0 0 C5.53846154 0.61538462 5.53846154 0.61538462 7.875 2.5625 C8.431875 3.2740625 8.431875 3.2740625 9 4 C8.01 4.495 8.01 4.495 7 5 C4.5249829 3.88568235 2.32116581 2.41849022 0 1 C0 0.67 0 0.34 0 0 Z " fill="#BDA280" transform="translate(562,291)"/>
<path d="M0 0 C3.16130459 4.21507278 3.3367697 5.06071112 3 10 C2.01 10.33 1.02 10.66 0 11 C0 7.37 0 3.74 0 0 Z " fill="#483222" transform="translate(360,120)"/>
<path d="M0 0 C0.66 0.33 1.32 0.66 2 1 C-0.64 3.64 -3.28 6.28 -6 9 C-6.33 8.01 -6.66 7.02 -7 6 C-4.69 4.02 -2.38 2.04 0 0 Z " fill="#B47450" transform="translate(453,640)"/>
<path d="M0 0 C-3.28463659 2.18975773 -6.20696275 2.99806563 -10 4 C-7.53453745 -1.4592385 -5.69047474 -1.11335375 0 0 Z " fill="#3F4C38" transform="translate(342,34)"/>
<path d="M0 0 C0.33 0.66 0.66 1.32 1 2 C0.06421005 4.35981813 -0.93347808 6.69631264 -2 9 C-4 8 -4 8 -5 5 C-4.01 5 -3.02 5 -2 5 C-1.34 3.35 -0.68 1.7 0 0 Z " fill="#B47551" transform="translate(439,662)"/>
<path d="M0 0 C0.33 0 0.66 0 1 0 C1.33 3.63 1.66 7.26 2 11 C1.67 10.01 1.34 9.02 1 8 C0.01 7.67 -0.98 7.34 -2 7 C-1.67 6.01 -1.34 5.02 -1 4 C-0.65772583 2.66893378 -0.32248257 1.33599921 0 0 Z " fill="#9E9071" transform="translate(553,267)"/>
<path d="M0 0 C3.465 1.98 3.465 1.98 7 4 C3.71023192 5.09658936 2.28696233 4.79953138 -1 4 C-0.67 2.68 -0.34 1.36 0 0 Z " fill="#0E281B" transform="translate(432,668)"/>
<path d="M0 0 C0.99 0.33 1.98 0.66 3 1 C2.625 3.9375 2.625 3.9375 2 7 C1.01 7.495 1.01 7.495 0 8 C-1.125 2.25 -1.125 2.25 0 0 Z " fill="#979693" transform="translate(383,633)"/>
<path d="M0 0 C0.66 0 1.32 0 2 0 C3.06775224 1.96466413 4.06553465 3.96855359 5 6 C4.67 6.66 4.34 7.32 4 8 C1.44971017 6.72485508 1.06918289 5.59658703 0 3 C0 2.01 0 1.02 0 0 Z " fill="#1F533D" transform="translate(758,410)"/>
<path d="M0 0 C0.103125 0.639375 0.20625 1.27875 0.3125 1.9375 C0.539375 2.618125 0.76625 3.29875 1 4 C1.99 4.33 2.98 4.66 4 5 C3.67 6.32 3.34 7.64 3 9 C0.9375 6.1875 0.9375 6.1875 -1 3 C-0.67 2.01 -0.34 1.02 0 0 Z " fill="#908F72" transform="translate(384,257)"/>
</svg>
