<svg width="20" height="20" viewBox="0 0 20 20" fill="none" xmlns="http://www.w3.org/2000/svg">
<path d="M5 10.6133H13C14.1935 10.6133 15.3377 11.0877 16.1816 11.9316C17.0256 12.7756 17.5 13.9198 17.5 15.1133C17.5 15.7763 17.2364 16.412 16.7676 16.8809C16.2987 17.3497 15.663 17.6133 15 17.6133H3C2.33696 17.6133 1.70126 17.3497 1.23242 16.8809C0.763581 16.412 0.5 15.7763 0.5 15.1133C0.5 13.9198 0.974446 12.7756 1.81836 11.9316C2.66227 11.0877 3.80653 10.6133 5 10.6133ZM9 0.613281C9.92826 0.613281 10.8182 0.982295 11.4746 1.63867C12.131 2.29505 12.5 3.18502 12.5 4.11328C12.5 5.04154 12.131 5.93151 11.4746 6.58789C10.8182 7.24427 9.92826 7.61328 9 7.61328C8.07174 7.61328 7.18177 7.24427 6.52539 6.58789C5.86901 5.93151 5.5 5.04154 5.5 4.11328C5.5 3.18502 5.86901 2.29505 6.52539 1.63867C7.18177 0.982295 8.07174 0.613281 9 0.613281Z" fill="#10B981" stroke="#10B981"/>
</svg>
