<svg width="18" height="19" viewBox="0 0 18 19" fill="none" xmlns="http://www.w3.org/2000/svg">
<mask id="path-1-inside-1_3741_1375" fill="white">
<path d="M17.858 17.2236L13.3278 12.6934C14.6197 11.2078 15.2842 9.27858 15.1814 7.31251C15.0786 5.34644 14.2165 3.49709 12.7767 2.15429C11.337 0.81149 9.43208 0.0801507 7.46362 0.114434C5.49516 0.148718 3.61691 0.945946 2.22479 2.33807C0.832665 3.73019 0.0354368 5.60844 0.00115312 7.5769C-0.0331305 9.54536 0.698209 11.4502 2.04101 12.89C3.38381 14.3297 5.23316 15.1919 7.19923 15.2947C9.1653 15.3975 11.0945 14.7329 12.5801 13.4411L17.1103 17.9713C17.2106 18.0647 17.3433 18.1156 17.4803 18.1132C17.6174 18.1108 17.7481 18.0553 17.8451 17.9583C17.942 17.8614 17.9975 17.7306 17.9999 17.5936C18.0023 17.4565 17.9515 17.3239 17.858 17.2236ZM1.08446 7.72236C1.08446 6.43191 1.46712 5.17044 2.18405 4.09747C2.90099 3.0245 3.91999 2.18823 5.11221 1.69439C6.30443 1.20056 7.61631 1.07135 8.88196 1.32311C10.1476 1.57486 11.3102 2.19627 12.2227 3.10875C13.1352 4.02124 13.7566 5.18381 14.0083 6.44947C14.2601 7.71512 14.1309 9.027 13.637 10.2192C13.1432 11.4114 12.3069 12.4304 11.234 13.1474C10.161 13.8643 8.89952 14.247 7.60908 14.247C5.87928 14.2449 4.22094 13.5568 2.99779 12.3336C1.77464 11.1105 1.08656 9.45215 1.08446 7.72236Z"/>
</mask>
<path d="M17.858 17.2236L13.3278 12.6934C14.6197 11.2078 15.2842 9.27858 15.1814 7.31251C15.0786 5.34644 14.2165 3.49709 12.7767 2.15429C11.337 0.81149 9.43208 0.0801507 7.46362 0.114434C5.49516 0.148718 3.61691 0.945946 2.22479 2.33807C0.832665 3.73019 0.0354368 5.60844 0.00115312 7.5769C-0.0331305 9.54536 0.698209 11.4502 2.04101 12.89C3.38381 14.3297 5.23316 15.1919 7.19923 15.2947C9.1653 15.3975 11.0945 14.7329 12.5801 13.4411L17.1103 17.9713C17.2106 18.0647 17.3433 18.1156 17.4803 18.1132C17.6174 18.1108 17.7481 18.0553 17.8451 17.9583C17.942 17.8614 17.9975 17.7306 17.9999 17.5936C18.0023 17.4565 17.9515 17.3239 17.858 17.2236ZM1.08446 7.72236C1.08446 6.43191 1.46712 5.17044 2.18405 4.09747C2.90099 3.0245 3.91999 2.18823 5.11221 1.69439C6.30443 1.20056 7.61631 1.07135 8.88196 1.32311C10.1476 1.57486 11.3102 2.19627 12.2227 3.10875C13.1352 4.02124 13.7566 5.18381 14.0083 6.44947C14.2601 7.71512 14.1309 9.027 13.637 10.2192C13.1432 11.4114 12.3069 12.4304 11.234 13.1474C10.161 13.8643 8.89952 14.247 7.60908 14.247C5.87928 14.2449 4.22094 13.5568 2.99779 12.3336C1.77464 11.1105 1.08656 9.45215 1.08446 7.72236Z" fill="#10B981"/>
<path d="M17.858 17.2236L20.7845 14.4967L20.7363 14.4451L20.6864 14.3952L17.858 17.2236ZM13.3278 12.6934L10.3094 10.0687L7.86143 12.8839L10.4994 15.5218L13.3278 12.6934ZM12.5801 13.4411L15.4086 10.6127L12.7706 7.97471L9.95543 10.4227L12.5801 13.4411ZM17.1103 17.9713L14.2819 20.7997L14.3318 20.8496L14.3834 20.8977L17.1103 17.9713ZM1.08446 7.72236H-2.91555L-2.91554 7.72721L1.08446 7.72236ZM7.60908 14.247L7.60422 18.247H7.60908V14.247ZM17.858 17.2236L20.6864 14.3952L16.1562 9.86498L13.3278 12.6934L10.4994 15.5218L15.0296 20.052L17.858 17.2236ZM13.3278 12.6934L16.3462 15.3181C18.3184 13.0501 19.3329 10.105 19.176 7.10363L15.1814 7.31251L11.1869 7.52139C11.2355 8.45213 10.9209 9.36541 10.3094 10.0687L13.3278 12.6934ZM15.1814 7.31251L19.176 7.10363C19.019 4.10223 17.7029 1.279 15.5049 -0.770915L12.7767 2.15429L10.0485 5.07949C10.7301 5.71517 11.1382 6.59066 11.1869 7.52139L15.1814 7.31251ZM12.7767 2.15429L15.5049 -0.770915C13.307 -2.82083 10.399 -3.9373 7.39396 -3.88496L7.46362 0.114434L7.53327 4.11383C8.46514 4.0976 9.36691 4.44381 10.0485 5.07949L12.7767 2.15429ZM7.46362 0.114434L7.39396 -3.88496C4.38891 -3.83262 1.52157 -2.61557 -0.603641 -0.49036L2.22479 2.33807L5.05321 5.16649C5.71224 4.50747 6.60141 4.13006 7.53327 4.11383L7.46362 0.114434ZM2.22479 2.33807L-0.603641 -0.49036C-2.72885 1.63485 -3.9459 4.50219 -3.99824 7.50724L0.00115312 7.5769L4.00055 7.64655C4.01678 6.71469 4.39418 5.82552 5.05321 5.16649L2.22479 2.33807ZM0.00115312 7.5769L-3.99824 7.50724C-4.05058 10.5123 -2.93411 13.4203 -0.884196 15.6182L2.04101 12.89L4.96621 10.1618C4.33053 9.48019 3.98432 8.57842 4.00055 7.64655L0.00115312 7.5769ZM2.04101 12.89L-0.884196 15.6182C1.16572 17.8161 3.98895 19.1323 6.99035 19.2892L7.19923 15.2947L7.40811 11.3002C6.47738 11.2515 5.60189 10.8433 4.96621 10.1618L2.04101 12.89ZM7.19923 15.2947L6.99035 19.2892C9.99175 19.4462 12.9369 18.4317 15.2048 16.4595L12.5801 13.4411L9.95543 10.4227C9.25213 11.0342 8.33885 11.3488 7.40811 11.3002L7.19923 15.2947ZM12.5801 13.4411L9.7517 16.2695L14.2819 20.7997L17.1103 17.9713L19.9388 15.1429L15.4086 10.6127L12.5801 13.4411ZM17.1103 17.9713L14.3834 20.8977C15.242 21.6978 16.3776 22.1333 17.5509 22.1126L17.4803 18.1132L17.4097 14.1138C18.3089 14.098 19.1792 14.4317 19.8372 15.0449L17.1103 17.9713ZM17.4803 18.1132L17.5509 22.1126C18.7242 22.0919 19.8437 21.6166 20.6735 20.7868L17.8451 17.9583L15.0166 15.1299C15.6526 14.494 16.5105 14.1297 17.4097 14.1138L17.4803 18.1132ZM17.8451 17.9583L20.6735 20.7868C21.5033 19.957 21.9786 18.8375 21.9993 17.6642L17.9999 17.5936L14.0005 17.523C14.0164 16.6238 14.3807 15.7659 15.0166 15.1299L17.8451 17.9583ZM17.9999 17.5936L21.9993 17.6642C22.02 16.4909 21.5845 15.3553 20.7845 14.4967L17.858 17.2236L14.9316 19.9505C14.3184 19.2925 13.9847 18.4222 14.0005 17.523L17.9999 17.5936ZM1.08446 7.72236H5.08446C5.08446 7.22303 5.23252 6.73492 5.50993 6.31975L2.18405 4.09747L-1.14183 1.87519C-2.29829 3.60596 -2.91554 5.64078 -2.91554 7.72236H1.08446ZM2.18405 4.09747L5.50993 6.31975C5.78734 5.90458 6.18163 5.58099 6.64294 5.38991L5.11221 1.69439L3.58148 -2.00112C1.65835 -1.20454 0.0146339 0.144426 -1.14183 1.87519L2.18405 4.09747ZM5.11221 1.69439L6.64294 5.38991C7.10426 5.19883 7.61188 5.14883 8.1016 5.24625L8.88196 1.32311L9.66233 -2.60004C7.62075 -3.00613 5.5046 -2.79771 3.58148 -2.00112L5.11221 1.69439ZM8.88196 1.32311L8.1016 5.24625C8.59133 5.34366 9.04118 5.58411 9.39425 5.93718L12.2227 3.10875L15.0511 0.280326C13.5792 -1.19157 11.7039 -2.19394 9.66233 -2.60004L8.88196 1.32311ZM12.2227 3.10875L9.39425 5.93718C9.74732 6.29026 9.98777 6.7401 10.0852 7.22983L14.0083 6.44947L17.9315 5.6691C17.5254 3.62753 16.523 1.75222 15.0511 0.280326L12.2227 3.10875ZM14.0083 6.44947L10.0852 7.22983C10.1826 7.71955 10.1326 8.22717 9.94152 8.68849L13.637 10.2192L17.3326 11.75C18.1291 9.82683 18.3376 7.71068 17.9315 5.6691L14.0083 6.44947ZM13.637 10.2192L9.94152 8.68849C9.75043 9.1498 9.42685 9.54409 9.01168 9.8215L11.234 13.1474L13.4562 16.4733C15.187 15.3168 16.536 13.6731 17.3326 11.75L13.637 10.2192ZM11.234 13.1474L9.01168 9.8215C8.59651 10.0989 8.1084 10.247 7.60908 10.247V14.247V18.247C9.69065 18.247 11.7255 17.6297 13.4562 16.4733L11.234 13.1474ZM7.60908 14.247L7.61393 10.247C6.94332 10.2462 6.30041 9.9794 5.82622 9.50521L2.99779 12.3336L0.169365 15.1621C2.14147 17.1342 4.81524 18.2436 7.60422 18.247L7.60908 14.247ZM2.99779 12.3336L5.82622 9.50521C5.35203 9.03102 5.08527 8.38811 5.08445 7.7175L1.08446 7.72236L-2.91554 7.72721C-2.91216 10.5162 -1.80274 13.19 0.169365 15.1621L2.99779 12.3336Z" fill="#10B981" mask="url(#path-1-inside-1_3741_1375)"/>
</svg>
