<svg width="20" height="20" viewBox="0 0 20 20" fill="none" xmlns="http://www.w3.org/2000/svg">
<path d="M17.1015 7.74507H2.89993C2.61253 7.74539 2.32891 7.81066 2.07029 7.93602C1.81166 8.06137 1.58472 8.24355 1.40641 8.46896C1.22885 8.69373 1.10477 8.95597 1.04357 9.2358C0.982381 9.51563 0.98568 9.80572 1.05322 10.0841L2.57593 16.3189C2.79639 17.1222 3.27507 17.8306 3.93809 18.3349C4.60166 18.8399 5.4141 19.1133 6.24989 19.1133H13.7496C14.5854 19.1133 15.3978 18.8399 16.0614 18.3349C16.7244 17.8306 17.2031 17.1222 17.4235 16.3189L18.9463 10.0851C19.0487 9.66479 19.0038 9.22207 18.8189 8.83099C18.634 8.43991 18.3203 8.12422 17.9305 7.93674C17.6711 7.8122 17.3873 7.74674 17.0995 7.74507M6.19345 11.5338V15.3236M10.0007 11.5338V15.3236M13.808 11.5338V15.3236M16.6636 7.74507C16.6633 6.87333 16.4907 6.01025 16.1558 5.20543C15.8208 4.40061 15.3301 3.66991 14.7119 3.05534C13.4601 1.81042 11.7661 1.11212 10.0007 1.11328C8.23529 1.11212 6.54131 1.81042 5.28956 3.05534C4.67149 3.66999 4.18097 4.40072 3.84618 5.20554C3.5114 6.01036 3.33895 6.87339 3.33874 7.74507" stroke="#10B981" stroke-width="2" stroke-linecap="round" stroke-linejoin="round"/>
</svg>
